<svg width="20" height="20" viewBox="0 0 20 20" fill="none" xmlns="http://www.w3.org/2000/svg">
<path d="M17.1111 9.99999C17.0687 10.4666 16.8141 10.7212 16.3475 10.7636H5.56152L9.79319 14.8044C10.0901 15.1437 10.0901 15.5043 9.79319 15.8861C9.4538 16.1831 9.09321 16.1831 8.71141 15.8861L3.1116 10.5409C2.96313 10.3924 2.88889 10.2121 2.88889 9.99999C2.88889 9.78787 2.96313 9.60758 3.1116 9.4591L8.71141 4.11383C9.09321 3.81687 9.4538 3.81687 9.79319 4.11383C10.0901 4.49564 10.0901 4.85623 9.79319 5.19561L5.56152 9.23638H16.3793C16.8248 9.2788 17.0687 9.53334 17.1111 9.99999Z" fill="#202938"/>
</svg>
