<svg width="16" height="16" viewBox="0 0 16 16" fill="none" xmlns="http://www.w3.org/2000/svg">
<path d="M14.6294 13.2118C15.0365 13.7061 15.0365 14.2004 14.6294 14.6947C14.1352 15.1018 13.6409 15.1018 13.1466 14.6947L8.00017 9.50467L2.81013 14.6947C2.31585 15.1018 1.82156 15.1018 1.32727 14.6947C0.920207 14.2004 0.920207 13.7061 1.32727 13.2118L6.5173 8.02181L1.32727 2.78816C0.920207 2.29387 0.920207 1.79958 1.32727 1.3053C1.82156 0.898235 2.31585 0.898235 2.81013 1.3053L8.00017 6.53894L13.1902 1.34891C13.6845 0.941848 14.1788 0.941848 14.6731 1.34891C15.0801 1.8432 15.0801 2.33749 14.6731 2.83178L9.48303 8.02181L14.6294 13.2118Z" fill="#697585"/>
</svg>
