<svg width="32" height="32" viewBox="0 0 32 32" fill="none" xmlns="http://www.w3.org/2000/svg">
<rect x="0.5" y="0.5" width="31" height="31" rx="15.5" fill="white"/>
<rect x="0.5" y="0.5" width="31" height="31" rx="15.5" stroke="#CDD5DF"/>
<path d="M17.5863 23.2069L11.276 16.6207C11.0921 16.3908 11.0001 16.1839 11.0001 16C11.0001 15.7931 11.0806 15.5977 11.2415 15.4138L17.5863 8.79314C17.7472 8.63222 17.9427 8.55176 18.1725 8.55176C18.4024 8.55176 18.5978 8.63222 18.7587 8.79314C19.0806 9.16095 19.0806 9.55176 18.7587 9.96555L12.9656 16L18.7587 22.0345C19.0806 22.4483 19.0691 22.8391 18.7243 23.2069C18.5863 23.3678 18.4024 23.4483 18.1725 23.4483C17.9427 23.4483 17.7472 23.3678 17.5863 23.2069Z" fill="#202938"/>
</svg>
