<svg width="32" height="32" viewBox="0 0 32 32" fill="none" xmlns="http://www.w3.org/2000/svg">
<rect x="0.5" y="0.5" width="31" height="31" rx="15.5" fill="white"/>
<rect x="0.5" y="0.5" width="31" height="31" rx="15.5" stroke="#CDD5DF"/>
<path d="M14.4139 8.79307L20.7243 15.3793C20.9082 15.6092 21.0001 15.8161 21.0001 16C21.0001 16.2069 20.9197 16.4023 20.7587 16.5862L14.4139 23.2069C14.253 23.3678 14.0576 23.4482 13.8277 23.4482C13.5978 23.4482 13.4024 23.3678 13.2415 23.2069C12.9197 22.839 12.9197 22.4482 13.2415 22.0344L19.0346 16L13.2415 9.96548C12.9197 9.55169 12.9312 9.16089 13.276 8.79307C13.4139 8.63215 13.5978 8.55169 13.8277 8.55169C14.0576 8.55169 14.253 8.63215 14.4139 8.79307Z" fill="#202938"/>
</svg>
