<svg width="20" height="20" viewBox="0 0 20 20" fill="none" xmlns="http://www.w3.org/2000/svg">
<path d="M16.5 10C16.5 8.8125 16.2083 7.72917 15.625 6.75C15.0625 5.77083 14.2708 4.97917 13.25 4.375C12.2292 3.79167 11.1458 3.5 10 3.5C8.85417 3.5 7.77083 3.79167 6.75 4.375C5.72917 4.97917 4.9375 5.77083 4.375 6.75C3.79167 7.72917 3.5 8.8125 3.5 10C3.5 11.1875 3.79167 12.2708 4.375 13.25C4.9375 14.2292 5.72917 15.0208 6.75 15.625C7.77083 16.2083 8.85417 16.5 10 16.5C11.1458 16.5 12.2292 16.2083 13.25 15.625C14.2708 15.0208 15.0625 14.2292 15.625 13.25C16.2083 12.2708 16.5 11.1875 16.5 10ZM2 10C2.02083 8.54167 2.375 7.20833 3.0625 6C3.77083 4.79167 4.75 3.8125 6 3.0625C7.27083 2.35417 8.60417 2 10 2C11.3958 2 12.7292 2.35417 14 3.0625C15.25 3.8125 16.2292 4.79167 16.9375 6C17.625 7.20833 17.9792 8.54167 18 10C17.9792 11.4583 17.625 12.7917 16.9375 14C16.2292 15.2083 15.25 16.1875 14 16.9375C12.7292 17.6458 11.3958 18 10 18C8.60417 18 7.27083 17.6458 6 16.9375C4.75 16.1875 3.77083 15.2083 3.0625 14C2.375 12.7917 2.02083 11.4583 2 10ZM9.25 5.75C9.29167 5.29167 9.54167 5.04167 10 5C10.4583 5.04167 10.7083 5.29167 10.75 5.75V9.59375L13.4062 11.375C13.7812 11.6667 13.8542 12.0104 13.625 12.4062C13.3333 12.7812 12.9896 12.8542 12.5938 12.625L9.59375 10.625C9.36458 10.4792 9.25 10.2708 9.25 10V5.75Z" fill="#364151"/>
</svg>
