<svg width="64" height="64" viewBox="0 0 64 64" fill="none" xmlns="http://www.w3.org/2000/svg">
<rect width="64" height="64" rx="32" fill="#CCFBEF"/>
<path d="M34.5308 47.1395C34.5757 42.5502 33.4122 38.8182 31.9322 38.8037C30.4521 38.7893 29.2159 42.4979 29.1711 47.0871C29.1262 51.6764 30.2897 55.4085 31.7697 55.4229C33.2498 55.4374 34.486 51.7288 34.5308 47.1395Z" fill="#15B79E"/>
<path d="M25.9471 46.0972C28.4662 42.2608 29.5053 38.4922 28.2681 37.6798C27.0308 36.8674 23.9857 39.3188 21.4667 43.1552C18.9476 46.9916 17.9085 50.7601 19.1457 51.5726C20.383 52.385 23.428 49.9336 25.9471 46.0972Z" fill="#15B79E"/>
<path d="M19.2793 40.593C23.4727 38.7278 26.3844 36.1194 25.7828 34.767C25.1813 33.4146 21.2943 33.8304 17.1009 35.6957C12.9076 37.5609 9.99584 40.1693 10.5974 41.5217C11.1989 42.8741 15.086 42.4583 19.2793 40.593Z" fill="#15B79E"/>
<path d="M25.2795 30.9745C25.5047 29.5116 22.01 27.7597 17.474 27.0615C12.9378 26.3633 9.07811 26.9833 8.85295 28.4462C8.62779 29.9091 12.1225 31.6609 16.6585 32.3591C21.1946 33.0573 25.0544 32.4373 25.2795 30.9745Z" fill="#15B79E"/>
<path d="M26.9079 27.4895C27.8881 26.3805 25.8949 23.0176 22.456 19.9783C19.0171 16.939 15.4347 15.3743 14.4545 16.4833C13.4744 17.5924 15.4676 20.9553 18.9065 23.9946C22.3454 27.0339 25.9278 28.5986 26.9079 27.4895Z" fill="#15B79E"/>
<path d="M30.1515 25.4528C31.5757 25.0498 31.7173 21.1431 30.4677 16.7271C29.2181 12.311 27.0505 9.05772 25.6263 9.46073C24.2021 9.86374 24.0605 13.7704 25.3101 18.1865C26.5597 22.6025 28.7273 25.8558 30.1515 25.4528Z" fill="#15B79E"/>
<path d="M38.9585 18.3239C40.295 13.9333 40.2306 10.0246 38.8146 9.59361C37.3986 9.16259 35.1673 12.3725 33.8308 16.763C32.4944 21.1536 32.5588 25.0623 33.9748 25.4933C35.3908 25.9243 37.6221 22.7145 38.9585 18.3239Z" fill="#15B79E"/>
<path d="M45.2514 24.2565C48.7491 21.285 50.8077 17.9617 49.8493 16.8337C48.891 15.7057 45.2787 17.2002 41.7811 20.1716C38.2834 23.1431 36.2249 26.4664 37.1832 27.5944C38.1415 28.7224 41.7538 27.228 45.2514 24.2565Z" fill="#15B79E"/>
<path d="M47.3323 32.6519C51.8813 32.0433 55.4098 30.3607 55.2135 28.8936C55.0173 27.4266 51.1705 26.7307 46.6215 27.3392C42.0726 27.9478 38.544 29.6304 38.7403 31.0975C38.9366 32.5645 42.7833 33.2605 47.3323 32.6519Z" fill="#15B79E"/>
<path d="M53.2003 41.941C53.8284 40.6008 50.9687 37.9355 46.8129 35.9879C42.6572 34.0403 38.7791 33.548 38.151 34.8882C37.5229 36.2285 40.3826 38.8938 44.5384 40.8414C48.6941 42.7889 52.5722 43.2813 53.2003 41.941Z" fill="#15B79E"/>
<path d="M44.4589 51.8299C45.7119 51.0421 44.7473 47.2537 42.3044 43.3684C39.8615 39.4831 36.8653 36.9722 35.6123 37.76C34.3593 38.5478 35.3239 42.3362 37.7668 46.2215C40.2097 50.1068 43.2059 52.6178 44.4589 51.8299Z" fill="#15B79E"/>
</svg>
