<svg width="20" height="20" viewBox="0 0 20 20" fill="none" xmlns="http://www.w3.org/2000/svg">
<path d="M17.2069 7.41379L10.6207 13.7241C10.3908 13.908 10.1839 14 10 14C9.79314 14 9.59773 13.9195 9.41383 13.7586L2.79314 7.41379C2.63222 7.25287 2.55176 7.05747 2.55176 6.82759C2.55176 6.5977 2.63222 6.4023 2.79314 6.24138C3.16095 5.91954 3.55176 5.91954 3.96555 6.24138L10 12.0345L16.0345 6.24138C16.4483 5.91954 16.8391 5.93103 17.2069 6.27586C17.3678 6.41379 17.4483 6.5977 17.4483 6.82759C17.4483 7.05747 17.3678 7.25287 17.2069 7.41379Z" fill="#697585"/>
</svg>
