<svg width="81" height="80" viewBox="0 0 81 80" fill="none" xmlns="http://www.w3.org/2000/svg">
<circle cx="40.5" cy="40" r="40" fill="#E0EAFF"/>
<mask id="mask0_555_15672" style="mask-type:alpha" maskUnits="userSpaceOnUse" x="0" y="0" width="81" height="80">
<circle cx="40.5" cy="40" r="40" fill="#E0EAFF"/>
</mask>
<g mask="url(#mask0_555_15672)">
<g opacity="0.25">
<path d="M75.5014 -12.0897C62.1884 -18.5317 61.7356 11.2773 47.0029 12.7504C30.8904 14.3615 29.2355 -19.2018 13.7398 -9.57234C0.21629 -1.16843 26.6158 16.3095 18.5044 29.89C10.2649 43.6851 -21.0185 27.5274 -20.4935 43.5521C-19.7873 65.1077 17.3167 36.0718 27.7539 51.9977C36.4091 65.2044 7.40066 84.5464 24.7541 92.2386C39.811 98.9128 33.3046 59.5446 49.7528 58.4561C61.1279 57.7033 67.2793 79.9598 75.5014 72.1181C84.4649 63.5693 63.2355 56.0672 67.0018 46.0361C71.8939 33.0069 101.5 50.2481 101.5 36.3485C101.5 22.4489 74.8025 38.2081 67.0018 26.6608C58.3136 13.7997 89.5248 -5.30383 75.5014 -12.0897Z" stroke="#6172F3" stroke-width="3.10826"/>
</g>
</g>
<path d="M64.815 38.7245C66.0917 53.4017 54.341 63.8207 41.0545 63.997C27.7679 64.1734 18.7131 56.4645 16.728 42.9111C14.7429 29.3577 26.0304 17.1816 38.5802 16.089C51.1299 14.9964 63.5383 24.0473 64.815 38.7245Z" fill="#E0EAFF"/>
<path d="M25.999 41.3583C27.9593 43.2485 33.1291 45.9056 38.1258 41.4122M58.1776 39.6664C56.1321 41.3506 50.8936 43.9151 46.3038 40.7002M39.6454 56.1153C42.0133 54.4307 48.6436 50.7456 56.221 49.4821M64.815 38.7245C66.0917 53.4017 54.341 63.8207 41.0545 63.997C27.7679 64.1734 18.7131 56.4645 16.728 42.9111C14.7429 29.3577 26.0304 17.1816 38.5802 16.089C51.1299 14.9964 63.5383 24.0473 64.815 38.7245Z" stroke="#6172F3" stroke-width="4"/>
<path d="M27.5142 50.6863L28.8719 49.6872M27.5142 50.6863L26.1504 49.6948M27.5142 50.6863C26.1504 49.6948 26.1504 49.6948 26.1504 49.6948M27.5142 50.6863C28.8719 49.6872 28.8719 49.6872 28.8719 49.6872M28.8719 49.6872L27.506 47.9959L26.1504 49.6948M28.8719 49.6872L28.8788 49.6957L28.8941 49.7149C28.9072 49.7312 28.9258 49.7546 28.9495 49.7846C28.997 49.8446 29.0652 49.9315 29.1512 50.0426C29.323 50.2647 29.5661 50.5844 29.8569 50.9815C30.4371 51.774 31.1981 52.1964 31.9766 53.4581C32.7524 54.7155 33.5478 56.1522 34.1536 57.5974C34.7496 59.0194 35.2137 60.5696 35.2137 62.0201C35.2137 66.1591 31.8289 69.6363 27.4994 69.6363C23.17 69.6363 19.7852 66.1591 19.7852 62.0201C19.7852 60.5888 20.2515 59.0479 20.846 57.634C21.4511 56.1948 22.2457 54.7567 23.0205 53.495C23.7981 52.2288 24.5879 51.7988 25.1674 51C25.4578 50.5998 25.7006 50.2772 25.8721 50.0531C25.9578 49.941 26.0259 49.8533 26.0733 49.7928C26.0969 49.7625 26.1155 49.739 26.1284 49.7226L26.1437 49.7033L26.1504 49.6948M25.9784 55.15C26.5104 54.2837 27.0439 53.4886 27.506 52.8294C27.9653 53.4798 28.4945 54.2635 29.0223 55.1189C29.7465 56.2927 30.4511 57.5742 30.9703 58.8131C31.4993 60.0752 31.7852 61.1753 31.7852 62.0201C31.7852 64.4862 29.7974 66.3636 27.4994 66.3636C25.2015 66.3636 23.2137 64.4862 23.2137 62.0201C23.2137 61.2014 23.4974 60.1147 24.0279 58.853C24.5478 57.6165 25.2532 56.3308 25.9784 55.15Z" stroke="#E0EAFF" stroke-width="4"/>
<path d="M33.5 62.0201C33.5 65.3227 30.8137 68 27.5 68C24.1863 68 21.5 65.3227 21.5 62.0201C21.5 57.5201 27.5 50.5 27.5 50.5C27.5 50.5 33.5 57.4295 33.5 62.0201Z" fill="#E0EAFF" stroke="#6172F3" stroke-width="4"/>
</svg>
