<svg width="64" height="64" viewBox="0 0 64 64" fill="none" xmlns="http://www.w3.org/2000/svg">
<rect width="64" height="64" rx="32" fill="#CCFBEF"/>
<path d="M52.7566 22.3149C50.1349 19.1082 46.9932 16.7466 43.4399 15.3382C37.1565 12.8466 31.3498 14.0166 25.1748 15.2516C20.6031 16.1832 16.1181 17.6782 11.8064 19.7149C11.2431 19.9749 10.8748 20.5599 10.8748 21.1882V27.6882C10.8748 28.2299 11.1348 28.7282 11.5898 29.0316C11.8714 29.2049 12.1748 29.3132 12.4998 29.3132C12.7164 29.3132 12.9114 29.2699 13.1064 29.1832C17.8948 27.2332 22.8781 25.8032 27.9265 24.9582C35.6182 23.6582 43.4615 23.6582 51.2182 24.9582C51.8899 25.0666 52.5616 24.7632 52.8866 24.1782C53.2332 23.5932 53.1682 22.8566 52.7349 22.3366L52.7566 22.3149ZM27.3848 21.7299C22.8781 22.4882 18.4148 23.6799 14.1031 25.2832V22.2066C17.8948 20.4949 21.8165 19.2382 25.8031 18.4366C31.7182 17.2449 36.8315 16.2049 42.2049 18.3499C43.8949 19.0216 45.4549 19.9316 46.9065 21.1016C40.3632 20.4516 33.8198 20.6682 27.3631 21.7516L27.3848 21.7299Z" fill="#0E9384"/>
<path d="M48.2722 35.1201C41.9672 40.6234 34.7955 41.2084 32.0005 41.2084C23.6155 41.2084 17.8305 36.9401 15.7288 35.1201C15.0571 34.5351 14.0388 34.6001 13.4321 35.2718C12.8471 35.9434 12.9121 36.9834 13.5838 37.5684C14.2988 38.1968 15.4255 39.0634 16.8555 39.9734C16.4871 40.7318 16.0321 41.3168 15.6421 41.7284C15.0138 42.3784 15.0571 43.3968 15.7071 44.0251C16.0321 44.3284 16.4221 44.4801 16.8338 44.4801C17.2671 44.4801 17.7005 44.3068 18.0038 43.9818C18.6971 43.2668 19.2388 42.4434 19.6938 41.5768C20.1488 41.7934 20.6471 42.0101 21.1455 42.2268C20.7988 42.9418 20.3655 43.5051 19.9755 43.8951C19.3471 44.5451 19.3905 45.5634 20.0405 46.1918C20.3655 46.4951 20.7555 46.6468 21.1671 46.6468C21.6005 46.6468 22.0338 46.4734 22.3371 46.1484C22.9438 45.5201 23.6805 44.5668 24.2222 43.3318C24.7205 43.4834 25.2188 43.6351 25.7605 43.7651C25.3922 44.7834 24.8072 45.5634 24.3088 46.0834C23.6805 46.7334 23.7238 47.7518 24.3738 48.3801C24.6772 48.6834 25.0888 48.8351 25.5005 48.8351C25.9338 48.8351 26.3672 48.6618 26.6705 48.3368C27.4938 47.4918 28.4472 46.1268 28.9672 44.3284C29.4222 44.3718 29.8988 44.3934 30.3538 44.4151V47.2318C30.3538 48.1201 31.0905 48.8568 31.9788 48.8568C32.8672 48.8568 33.6039 48.1201 33.6039 47.2318V44.4584C34.0372 44.4368 34.4922 44.3934 34.9905 44.3284C35.5105 46.1268 36.4855 47.4918 37.2872 48.3368C37.6122 48.6618 38.0239 48.8351 38.4572 48.8351C38.8689 48.8351 39.2589 48.6834 39.5839 48.3801C40.2339 47.7518 40.2555 46.7334 39.6489 46.0834C39.1505 45.5634 38.5655 44.7834 38.1972 43.7651C38.6955 43.6568 39.2155 43.5268 39.7572 43.3751C40.2989 44.5884 41.0355 45.5418 41.6422 46.1701C41.9672 46.4951 42.3789 46.6684 42.8122 46.6684C43.2239 46.6684 43.6139 46.5168 43.9389 46.2134C44.5889 45.5851 44.6106 44.5668 44.0039 43.9168C43.6356 43.5268 43.2022 42.9634 42.8556 42.2701C43.3322 42.0751 43.8306 41.8584 44.3072 41.6201C44.7406 42.4651 45.3039 43.2884 45.9756 44.0034C46.3006 44.3284 46.7122 44.5018 47.1456 44.5018C47.5572 44.5018 47.9472 44.3501 48.2722 44.0468C48.9222 43.4184 48.9439 42.4001 48.3372 41.7501C47.9689 41.3601 47.5139 40.7534 47.1456 40.0168C48.2289 39.3234 49.3339 38.5218 50.3956 37.5901C51.0672 37.0051 51.1322 35.9651 50.5472 35.2934C49.9622 34.6218 48.9222 34.5568 48.2506 35.1418L48.2722 35.1201Z" fill="#0E9384"/>
</svg>
