<svg width="64" height="64" viewBox="0 0 64 64" fill="none" xmlns="http://www.w3.org/2000/svg">
<rect width="64" height="64" rx="32" fill="#FEF0C7"/>
<path d="M20.6441 9.25024C18.5365 9.25024 16.8167 11.0225 16.8503 13.1181C17.0368 24.9036 18.4009 32.8778 19.7428 37.9459C20.8948 42.2971 21.9323 44.2476 22.2501 44.8162V49.8752C22.2501 52.5484 24.452 54.7502 27.1251 54.7502H36.8751C39.5482 54.7502 41.7501 52.5484 41.7501 49.8752V44.8162C42.0679 44.2476 43.1052 42.297 44.2574 37.9459C45.5994 32.8778 46.9628 24.9036 47.1498 13.1181V13.116C47.1815 11.0221 45.4658 9.25024 43.3582 9.25024H20.6441ZM20.6441 12.5002H43.3582C43.6815 12.5002 43.9049 12.7301 43.8998 13.0673C43.8897 13.7019 43.8087 14.0554 43.7919 14.6669H20.2082C20.1914 14.0545 20.1104 13.7007 20.1003 13.0652C20.095 12.7297 20.3208 12.5002 20.6441 12.5002ZM20.4283 17.9169H43.5719C43.1272 26.5029 42.1701 33.1288 41.1153 37.1122C40.1823 40.6358 39.4991 42.1039 39.12 42.8336H24.8801C24.5011 42.1039 23.8178 40.6358 22.8848 37.1122C21.8302 33.1288 20.8726 26.5029 20.4283 17.9169ZM29.2917 23.3336C27.8145 23.3336 26.5834 24.5647 26.5834 26.0419V31.4586C26.5834 32.9358 27.8145 34.1669 29.2917 34.1669H34.7084C36.1856 34.1669 37.4167 32.9358 37.4167 31.4586V26.0419C37.4167 24.5647 36.1856 23.3336 34.7084 23.3336H29.2917ZM29.8334 26.5836H34.1667V30.9169H29.8334V26.5836ZM25.5001 46.0836H38.5001V49.8752C38.5001 50.7923 37.7921 51.5002 36.8751 51.5002H27.1251C26.208 51.5002 25.5001 50.7923 25.5001 49.8752V46.0836Z" fill="#DC6803"/>
</svg>
