<svg width="64" height="64" viewBox="0 0 64 64" fill="none" xmlns="http://www.w3.org/2000/svg">
<rect width="64" height="64" rx="32" fill="#E0EAFF"/>
<path d="M41.3618 10.0098C39.9897 10.0098 38.6901 10.6275 37.8227 11.6895H37.8208C36.9014 12.8153 35.1267 14.5834 33.4165 16.3711C31.7063 18.1588 30.0582 19.9116 29.1684 21.5723C28.8055 22.2495 28.4337 23.172 28.061 24.1914L23.8833 24.7871C23.3509 22.3327 20.9185 20.3184 17.8676 20.0332C17.6246 20.0102 17.381 20 17.143 20C13.878 20 11.2002 22.0815 11.0102 24.8945C10.8062 27.9136 13.5453 30.6318 17.1294 30.9668C17.1516 30.9689 17.1735 30.9688 17.1958 30.9707C17.2041 30.9725 21.0268 31.7584 25.561 32.416C25.5224 32.5577 25.4822 32.7008 25.4438 32.8418C24.2778 37.13 23.3732 40.9043 23.3559 40.9766C22.5906 43.4781 23.1115 46.0346 24.563 47.5801C24.1655 48.3948 23.9331 49.2533 23.9301 50.1172C23.9255 51.433 24.464 52.7761 25.5493 53.6622C25.7019 53.7868 25.8776 53.8802 26.0663 53.937C26.255 53.9938 26.453 54.0128 26.6491 53.9931C26.8451 53.9733 27.0354 53.9151 27.209 53.8218C27.3826 53.7285 27.5361 53.602 27.6607 53.4494C27.7854 53.2967 27.8788 53.1211 27.9355 52.9323C27.9923 52.7436 28.0113 52.5456 27.9915 52.3495C27.9718 52.1535 27.9136 51.9632 27.8202 51.7896C27.7269 51.6161 27.6004 51.4626 27.4477 51.3379C27.095 51.05 26.9282 50.6834 26.9301 50.129C26.9313 49.7881 27.0295 49.3847 27.2173 48.9688C27.4239 48.998 27.6307 49.0254 27.8383 49.0254C30.1584 49.0254 32.4923 47.2468 33.5083 44.4668C34.5012 41.7489 33.9316 38.8938 32.2778 37.2871L34.3833 33.0469C35.6794 33.0907 36.92 33.0317 37.5747 32.9981C41.0122 32.8223 46.8624 31.1511 49.9927 30.2461C51.3633 29.8507 52.2484 28.8674 52.688 28.0098L52.6899 28.0078C53.1393 27.1288 53.0305 26.294 52.7114 25.5625C52.3923 24.831 51.6417 24.0015 50.5005 24H50.4985H38.8989L43.7798 13.5469C43.7916 13.5212 43.8026 13.4951 43.813 13.4688C44.4574 11.8589 43.2048 10.0098 41.4712 10.0098H41.3618ZM40.5356 13.4023L35.518 24.1485C35.512 24.1607 35.5062 24.1731 35.5005 24.1856C35.3764 24.4709 35.225 24.7421 35.0473 24.9961C35.0041 25.0576 34.9656 25.1222 34.9321 25.1895L29.5512 36.0352C29.4203 36.0237 29.2899 36 29.1587 36C28.6523 36 28.1466 36.1003 27.6528 36.2618C27.8884 35.3577 28.0693 34.6256 28.3403 33.6289C29.5034 29.3513 31.0285 24.454 31.813 22.9902C32.3382 22.0099 33.9131 20.1924 35.5845 18.4453C37.2558 16.6983 39.0194 14.9661 40.145 13.5879C40.2415 13.4698 40.4133 13.4863 40.5356 13.4023ZM17.143 23C17.29 23 17.4413 23.0075 17.5903 23.0215C19.4963 23.1995 21.0866 24.5454 20.9946 25.9024C20.9156 27.0784 19.536 28 17.854 28C17.707 28 17.5557 27.9925 17.4067 27.9785C15.5007 27.8005 13.9104 26.4547 14.0024 25.0977C14.0814 23.9217 15.461 23 17.143 23ZM37.3833 27H49.5923C49.4617 27.1217 49.4129 27.2905 49.1606 27.3633C46.0789 28.2543 39.9688 29.8718 37.4223 30.002C37.052 30.021 36.4764 30.0449 35.8657 30.0567L37.3833 27ZM27.0102 27.3711C26.7965 28.0716 26.5817 28.7691 26.3715 29.5039C25.0764 29.3201 23.8834 29.1368 22.7661 28.9473C23.0583 28.6188 23.3043 28.2583 23.4985 27.8711L27.0102 27.3711ZM29.1587 39C29.3407 39 29.5092 39.0327 29.6762 39.0977C30.7512 39.5167 31.4329 41.4025 30.6899 43.4375C30.0689 45.1365 28.7854 46.0254 27.8383 46.0254C27.6563 46.0254 27.4858 45.9947 27.3188 45.9297C26.2438 45.5107 25.5641 43.6249 26.3071 41.5899C26.9291 39.8899 28.2117 39 29.1587 39Z" fill="#444CE7"/>
</svg>
