<svg width="64" height="64" viewBox="0 0 64 64" fill="none" xmlns="http://www.w3.org/2000/svg">
<rect width="64" height="64" rx="32" fill="#CCFBEF"/>
<path fill-rule="evenodd" clip-rule="evenodd" d="M13.9305 17.2233L13.9307 17.223C14.6667 16.235 15.5645 15.3377 16.5782 14.5781C17.1136 14.1823 17.8239 14.1823 18.3593 14.5781C19.373 15.3377 20.2708 16.235 21.0068 17.223L21.007 17.2233C23.1005 20.0272 23.6096 23.064 23.6563 25.1186C23.6546 28.5819 20.8868 31.3438 17.4688 31.3438C14.0494 31.3438 11.2829 28.5806 11.2812 25.1656C11.3279 23.0637 11.8372 20.027 13.9305 17.2233ZM14.2473 25.2011L14.2472 25.2053V25.2095C14.2472 26.919 15.7171 28.3813 17.4688 28.3813C19.2469 28.3813 20.6903 26.9396 20.6903 25.1625V25.1603L20.6903 25.1582C20.6662 23.5908 20.2565 21.2019 18.6361 19.0031L18.6353 19.0021L18.6346 19.0011C18.3439 18.6139 18.0057 18.2279 17.6675 17.89L17.4755 17.6982L17.2769 17.8833C16.9062 18.229 16.5889 18.6203 16.3029 19.0011L16.3022 19.0021L16.3014 19.0031C14.6797 21.2037 14.2953 23.5933 14.2473 25.2011Z" fill="#0E9384"/>
<path d="M12.0569 31.9958C11.1553 36.5474 10.9985 41.2969 10.9985 45.5002C10.9985 46.3323 11.6665 47.0002 12.4985 47.0002H24.4985C25.1079 47.0002 25.6587 46.6252 25.8931 46.0627C26.1157 45.4885 25.9751 44.844 25.5298 44.4221C25.5298 44.4221 25.5064 44.4104 25.2954 44.0706C25.0728 43.7307 24.7446 43.1448 24.4048 42.219C23.7251 40.3674 22.9985 37.1682 22.9985 32.0002C22.1094 32.6564 21.0676 33.1772 20.0187 33.4971C20.1454 38.1119 20.8496 41.2238 21.5923 43.2502C21.6704 43.4562 21.7399 43.5846 21.8112 43.7165C21.8576 43.8022 21.9048 43.8894 21.9556 44.0002H14.0806C14.1211 40.5777 14.2984 36.9366 14.8781 33.4846C13.8415 33.1631 12.8878 32.6536 12.0569 31.9958Z" fill="#0E9384"/>
<path d="M25.9537 27.1466C27.7572 28.2153 30.5773 29.0002 34.9985 29.0002H40.9985V32.0002C40.9985 37.1682 40.272 40.3674 39.5923 42.219C39.2524 43.1448 38.9243 43.7307 38.7017 44.0706C38.4907 44.4104 38.4673 44.4221 38.4673 44.4221C38.022 44.844 37.8814 45.4885 38.104 46.0627C38.3384 46.6252 38.8892 47.0002 39.4985 47.0002H51.4985C52.3306 47.0002 52.9985 46.3323 52.9985 45.5002C52.9985 39.1018 52.6353 31.4377 49.8228 25.1331C47.022 18.8401 41.4321 14.0002 31.9985 14.0002C28.53 14.0002 25.5811 14.6545 23.0988 15.7948C23.7097 16.6246 24.2044 17.469 24.6038 18.3056C26.6194 17.465 29.0474 17.0002 31.9985 17.0002C40.4595 17.0002 44.6196 20.8206 47.0923 26.3635C49.3657 31.4846 49.8462 38.0706 49.9165 44.0002H42.0415C42.0923 43.8894 42.1395 43.8022 42.1859 43.7165C42.2572 43.5846 42.3267 43.4562 42.4048 43.2502C43.2251 41.012 43.9985 37.4495 43.9985 32.0002V27.5002C43.9985 26.6682 43.3306 26.0002 42.4985 26.0002H34.9985C30.0298 26.0002 27.7915 24.9221 26.8306 24.1018C26.3501 23.7034 26.1626 23.3518 26.0689 23.1292C26.0426 23.0669 26.0256 23.0257 26.0146 22.9987C26.1236 23.752 26.1731 24.4493 26.1869 25.0651L26.1875 25.0904V25.1157C26.1875 25.8153 26.1066 26.4952 25.9537 27.1466Z" fill="#0E9384"/>
</svg>
