<svg width="18" height="18" viewBox="0 0 18 18" fill="none" xmlns="http://www.w3.org/2000/svg">
<path d="M13.875 8.99998C13.875 8.10936 13.6562 7.29686 13.2187 6.56249C12.7968 5.82811 12.2031 5.23437 11.4375 4.78124C10.6718 4.34374 9.85935 4.125 8.99998 4.125C8.14061 4.125 7.32811 4.34374 6.56249 4.78124C5.79686 5.23437 5.20312 5.82811 4.78124 6.56249C4.34374 7.29686 4.125 8.10936 4.125 8.99998C4.125 9.8906 4.34374 10.7031 4.78124 11.4375C5.20312 12.1718 5.79686 12.7656 6.56249 13.2187C7.32811 13.6562 8.14061 13.875 8.99998 13.875C9.85935 13.875 10.6718 13.6562 11.4375 13.2187C12.2031 12.7656 12.7968 12.1718 13.2187 11.4375C13.6562 10.7031 13.875 9.8906 13.875 8.99998ZM3 8.99998C3.01562 7.90623 3.28125 6.90624 3.79687 5.99999C4.32812 5.09374 5.06249 4.35937 5.99999 3.79687C6.95311 3.26562 7.95311 3 8.99998 3C10.0468 3 11.0468 3.26562 12 3.79687C12.9375 4.35937 13.6718 5.09374 14.2031 5.99999C14.7187 6.90624 14.9843 7.90623 15 8.99998C14.9843 10.0937 14.7187 11.0937 14.2031 12C13.6718 12.9062 12.9375 13.6406 12 14.2031C11.0468 14.7343 10.0468 15 8.99998 15C7.95311 15 6.95311 14.7343 5.99999 14.2031C5.06249 13.6406 4.32812 12.9062 3.79687 12C3.28125 11.0937 3.01562 10.0937 3 8.99998ZM8.43748 5.81249C8.46873 5.46874 8.65623 5.28124 8.99998 5.24999C9.34373 5.28124 9.53123 5.46874 9.56248 5.81249V8.69529L11.5547 10.0312C11.8359 10.25 11.8906 10.5078 11.7187 10.8047C11.5 11.0859 11.2422 11.1406 10.9453 10.9687L8.69529 9.46873C8.52342 9.35935 8.43748 9.2031 8.43748 8.99998V5.81249Z" fill="#202938"/>
</svg>
