<svg width="18" height="18" viewBox="0 0 18 18" fill="none" xmlns="http://www.w3.org/2000/svg">
<path d="M7.17188 4.125H10.8281V3.10938C10.862 2.73698 11.0651 2.53385 11.4375 2.5C11.8099 2.53385 12.013 2.73698 12.0469 3.10938V4.125H13.0625C13.5195 4.14193 13.9004 4.30273 14.2051 4.60742C14.5098 4.91211 14.6706 5.29297 14.6875 5.75V13.875C14.6706 14.332 14.5098 14.7129 14.2051 15.0176C13.9004 15.3223 13.5195 15.4831 13.0625 15.5H4.9375C4.48047 15.4831 4.09961 15.3223 3.79492 15.0176C3.49023 14.7129 3.32943 14.332 3.3125 13.875V5.75C3.32943 5.29297 3.49023 4.91211 3.79492 4.60742C4.09961 4.30273 4.48047 4.14193 4.9375 4.125H5.95312V3.10938C5.98698 2.73698 6.1901 2.53385 6.5625 2.5C6.9349 2.53385 7.13802 2.73698 7.17188 3.10938V4.125ZM4.53125 13.875C4.54818 14.1289 4.68359 14.2643 4.9375 14.2812H13.0625C13.3164 14.2643 13.4518 14.1289 13.4688 13.875V7.375H4.53125V13.875Z" fill="#202938"/>
</svg>
