<svg width="20" height="20" viewBox="0 0 20 20" fill="none" xmlns="http://www.w3.org/2000/svg">
<path d="M15.0724 7.76321C15.0254 6.33072 14.5323 5.13307 13.593 4.17025C12.6301 3.23092 11.4325 2.73777 10 2.6908C8.56752 2.73777 7.36987 3.23092 6.40705 4.17025C5.46771 5.13307 4.97456 6.33072 4.9276 7.76321C4.9276 8.20939 5.10372 8.87867 5.45597 9.77104C5.85519 10.6634 6.36008 11.6027 6.97065 12.589C7.48728 13.411 8.00392 14.1977 8.52055 14.9491C9.06067 15.7006 9.55382 16.3581 10 16.9217C10.4462 16.3581 10.9393 15.7006 11.4795 14.9491C12.0196 14.1977 12.5362 13.411 13.0294 12.589C13.6399 11.6027 14.1448 10.6634 14.544 9.77104C14.8963 8.87867 15.0724 8.20939 15.0724 7.76321ZM16.7632 7.76321C16.7162 8.81996 16.3405 10.0411 15.636 11.4266C14.908 12.8121 14.0861 14.1507 13.1703 15.4423C12.2544 16.7573 11.4795 17.8023 10.8454 18.5773C10.6106 18.8591 10.3288 19 10 19C9.67124 19 9.38944 18.8591 9.1546 18.5773C8.52055 17.8023 7.7456 16.7573 6.82975 15.4423C5.9139 14.1507 5.09198 12.8121 4.364 11.4266C3.65949 10.0411 3.28376 8.81996 3.23679 7.76321C3.28376 5.83757 3.94129 4.2407 5.2094 2.9726C6.4775 1.7045 8.07437 1.04697 10 1C11.9256 1.04697 13.5225 1.7045 14.7906 2.9726C16.0587 4.2407 16.7162 5.83757 16.7632 7.76321ZM11.1272 7.76321C11.1272 7.43444 11.0215 7.16438 10.8102 6.95303C10.5988 6.74168 10.3288 6.63601 10 6.63601C9.67124 6.63601 9.40118 6.74168 9.18983 6.95303C8.97848 7.16438 8.8728 7.43444 8.8728 7.76321C8.8728 8.09198 8.97848 8.36204 9.18983 8.57339C9.40118 8.78474 9.67124 8.89041 10 8.89041C10.3288 8.89041 10.5988 8.78474 10.8102 8.57339C11.0215 8.36204 11.1272 8.09198 11.1272 7.76321ZM7.182 7.76321C7.20548 6.70646 7.67515 5.89628 8.591 5.33268C9.53034 4.81605 10.4697 4.81605 11.409 5.33268C12.3249 5.89628 12.7945 6.70646 12.818 7.76321C12.7945 8.81996 12.3249 9.63014 11.409 10.1937C10.4697 10.7104 9.53034 10.7104 8.591 10.1937C7.67515 9.63014 7.20548 8.81996 7.182 7.76321Z" fill="#364151"/>
</svg>
