<svg width="64" height="64" viewBox="0 0 64 64" fill="none" xmlns="http://www.w3.org/2000/svg">
<rect width="64" height="64" rx="32" fill="#E3E8EE"/>
<path d="M32.0005 13.2502C30.4258 13.2502 28.9731 13.6653 27.8257 14.4221C26.666 15.1912 25.7505 16.4363 25.7505 17.9377C25.7505 18.9387 26.1777 19.8054 26.7881 20.5012C25.3721 21.0017 24.0903 21.6365 22.9917 22.4055C20.8311 23.9192 19.293 26.0676 19.4761 28.5334C19.6348 30.5354 20.9409 32.1101 22.6987 33.2209C21.4536 33.5627 20.2573 33.9534 19.2075 34.4294C17.5107 35.1985 16.0825 36.1262 15.0205 37.2737C13.9585 38.4089 13.2505 39.8372 13.2505 41.3752C13.2505 42.9133 13.9585 44.3416 15.0205 45.4768C16.0825 46.6243 17.5107 47.552 19.2075 48.321C22.5889 49.8591 27.0566 50.7502 32.0005 50.7502C36.9443 50.7502 41.4121 49.8591 44.7935 48.321C46.4902 47.552 47.9185 46.6243 48.9805 45.4768C50.0425 44.3416 50.7505 42.9133 50.7505 41.3752C50.7505 39.8372 50.0425 38.4089 48.9805 37.2737C47.9185 36.1262 46.4902 35.1985 44.7935 34.4294C43.353 33.7703 41.6562 33.2576 39.8618 32.8547C40.2158 32.6472 40.5942 32.4519 40.936 32.22C43.0967 30.7063 44.647 28.5579 44.4517 26.092C44.2563 23.6384 42.3765 21.783 39.9961 20.7087C39.2759 20.3914 38.4824 20.1472 37.6646 19.9397C38.0186 19.3538 38.2505 18.6702 38.2505 17.9377C38.2505 16.4363 37.335 15.1912 36.1753 14.4221C35.0278 13.6653 33.5752 13.2502 32.0005 13.2502ZM32.0005 16.3752C33.0137 16.3752 33.9048 16.6682 34.4419 17.0344C34.9912 17.3884 35.1255 17.7058 35.1255 17.9377C35.1255 18.1697 34.9912 18.4871 34.4419 18.8411C33.9048 19.2073 33.0137 19.5002 32.0005 19.5002C30.9873 19.5002 30.0962 19.2073 29.5591 18.8411C29.0098 18.4871 28.8755 18.1697 28.8755 17.9377C28.8755 17.7058 29.0098 17.3884 29.5591 17.0344C30.0962 16.6682 30.9873 16.3752 32.0005 16.3752ZM33.6729 22.552C35.6382 22.5886 37.396 22.967 38.7021 23.553C40.46 24.3464 41.2534 25.3596 41.3267 26.3362C41.4121 27.3127 40.7529 28.5212 39.1294 29.6565C37.5181 30.7917 35.0767 31.7073 32.2935 31.9758C29.5103 32.2566 26.9712 31.8538 25.2134 31.0725C23.4678 30.2791 22.6743 29.2659 22.6011 28.2893C22.5156 27.3127 23.1748 26.1042 24.7983 24.969C26.4097 23.8337 28.8633 22.9182 31.6343 22.6497C31.7686 22.6252 31.8784 22.6375 32.0005 22.6252C32.562 22.5764 33.1357 22.552 33.6729 22.552ZM32.0005 35.1252C36.5537 35.1252 40.6675 35.9797 43.5117 37.2737C44.9277 37.9207 46.0142 38.6653 46.6978 39.3977C47.3691 40.1301 47.6255 40.7649 47.6255 41.3752C47.6255 41.9856 47.3691 42.6204 46.6978 43.3528C46.0142 44.0852 44.9277 44.8298 43.5117 45.4768C40.6675 46.7708 36.5537 47.6252 32.0005 47.6252C27.4473 47.6252 23.3335 46.7708 20.5015 45.4768C19.0732 44.8298 17.9868 44.0852 17.3032 43.3528C16.6318 42.6204 16.3755 41.9856 16.3755 41.3752C16.3755 40.7649 16.6318 40.1301 17.3032 39.3977C17.9868 38.6653 19.0732 37.9207 20.5015 37.2737C23.3335 35.9797 27.4473 35.1252 32.0005 35.1252Z" fill="#4B5564"/>
</svg>
