<svg width="64" height="64" viewBox="0 0 64 64" fill="none" xmlns="http://www.w3.org/2000/svg">
<rect width="64" height="64" rx="32" fill="#FEE4E2"/>
<path d="M49.9087 19.5651C49.2069 18.9727 48.3407 18.6093 47.4264 18.5235C46.5121 18.4377 45.5934 18.6336 44.7937 19.0851C44.5487 18.7048 44.2507 18.3613 43.9087 18.0651C43.4137 17.6306 42.8294 17.31 42.197 17.126C41.5646 16.9419 40.8995 16.899 40.2487 17.0001C39.7219 17.0863 39.2142 17.264 38.7487 17.5251C38.5037 17.1448 38.2057 16.8013 37.8637 16.5051C37.3689 16.0874 36.7898 15.7813 36.1659 15.6079C35.542 15.4344 34.888 15.3977 34.2487 15.5001C33.7219 15.5863 33.2142 15.764 32.7487 16.0251C32.5037 15.6448 32.2057 15.3013 31.8636 15.0051C31.3689 14.5874 30.7898 14.2813 30.1659 14.1079C29.542 13.9344 28.888 13.8977 28.2486 14.0001C27.7161 14.0897 27.2063 14.2834 26.7486 14.5701C26.1418 13.4284 25.2198 12.4851 24.0923 11.8522C22.9649 11.2193 21.6793 10.9236 20.3886 11.0001C18.6222 11.1305 16.9736 11.9352 15.7841 13.2475C14.5946 14.5599 13.9553 16.2794 13.9986 18.0501V35.8401C14.0152 38.1806 14.5264 40.4911 15.4986 42.6201C16.3445 44.5174 16.8522 46.548 16.9986 48.6201C17.0737 49.5386 17.0737 50.4617 16.9986 51.3801C16.9668 51.778 17.0943 52.1721 17.3531 52.4759C17.6119 52.7797 17.9808 52.9683 18.3786 53.0001C18.7765 53.032 19.1706 52.9044 19.4745 52.6456C19.7783 52.3868 19.9668 52.018 19.9986 51.6201C20.0737 50.5414 20.0737 49.4588 19.9986 48.3801C19.799 45.9698 19.1903 43.6111 18.1986 41.4051C17.4111 39.6554 17.0022 37.7589 16.9986 35.8401V18.0501C16.9704 17.0534 17.3192 16.0826 17.9755 15.3318C18.6317 14.5811 19.5471 14.1055 20.5386 14.0001C21.0497 13.9731 21.5609 14.051 22.0407 14.229C22.5205 14.407 22.9588 14.6814 23.3286 15.0351C23.6996 15.3831 23.9949 15.8038 24.1962 16.2709C24.3975 16.738 24.5004 17.2415 24.4986 17.7501V27.5001C24.4986 27.898 24.6567 28.2795 24.938 28.5608C25.2193 28.8421 25.6008 29.0001 25.9986 29.0001C26.3965 29.0001 26.778 28.8421 27.0593 28.5608C27.3406 28.2795 27.4986 27.898 27.4986 27.5001V18.6651C27.4801 18.2883 27.5924 17.9166 27.8166 17.6132C28.0408 17.3097 28.363 17.0931 28.7286 17.0001C28.9488 16.9612 29.1748 16.972 29.3902 17.0317C29.6056 17.0914 29.8049 17.1985 29.9736 17.3451C30.1402 17.4876 30.2736 17.6648 30.3643 17.8644C30.455 18.0639 30.5008 18.2809 30.4986 18.5001V29.0001C30.4986 29.398 30.6567 29.7795 30.938 30.0608C31.2193 30.3421 31.6008 30.5001 31.9987 30.5001C32.3965 30.5001 32.778 30.3421 33.0593 30.0608C33.3406 29.7795 33.4987 29.398 33.4987 29.0001V20.1651C33.4801 19.7883 33.5924 19.4166 33.8166 19.1132C34.0408 18.8097 34.363 18.5931 34.7287 18.5001C34.9488 18.4612 35.1748 18.472 35.3902 18.5317C35.6056 18.5914 35.8049 18.6985 35.9736 18.8451C36.1402 18.9876 36.2736 19.1648 36.3643 19.3644C36.455 19.5639 36.5008 19.7809 36.4987 20.0001V30.5001C36.4987 30.898 36.6567 31.2795 36.938 31.5608C37.2193 31.8421 37.6008 32.0001 37.9987 32.0001C38.3965 32.0001 38.778 31.8421 39.0593 31.5608C39.3406 31.2795 39.4987 30.898 39.4987 30.5001V21.6651C39.4801 21.2883 39.5924 20.9166 39.8166 20.6132C40.0408 20.3097 40.363 20.0931 40.7287 20.0001C40.9488 19.9612 41.1748 19.972 41.3902 20.0317C41.6056 20.0914 41.8049 20.1985 41.9737 20.3451C42.1402 20.4876 42.2736 20.6648 42.3643 20.8644C42.455 21.0639 42.5008 21.2809 42.4987 21.5001V32.0001C42.4987 32.398 42.6567 32.7795 42.938 33.0608C43.2193 33.3421 43.6008 33.5001 43.9987 33.5001C44.3965 33.5001 44.778 33.3421 45.0593 33.0608C45.3406 32.7795 45.4987 32.398 45.4987 32.0001V23.1651C45.4801 22.7883 45.5924 22.4166 45.8166 22.1132C46.0408 21.8097 46.363 21.5931 46.7287 21.5001C46.9488 21.4612 47.1748 21.472 47.3902 21.5317C47.6056 21.5914 47.8049 21.6985 47.9737 21.8451C48.1402 21.9876 48.2736 22.1648 48.3643 22.3644C48.455 22.5639 48.5009 22.7809 48.4987 23.0001V32.4651C48.4775 35.4953 48.1203 38.5137 47.4337 41.4651C47.2687 42.2151 47.1187 42.9651 47.0137 43.8651C46.6536 46.4828 46.6536 49.1375 47.0137 51.7551C47.074 52.1047 47.2562 52.4217 47.5281 52.6496C47.8 52.8776 48.1439 53.0017 48.4987 53.0001H48.6937C48.8913 52.9761 49.0822 52.913 49.2552 52.8145C49.4283 52.7159 49.5799 52.5839 49.7014 52.4261C49.8229 52.2684 49.9117 52.088 49.9627 51.8955C50.0138 51.7031 50.026 51.5024 49.9987 51.3051C49.6837 48.9456 49.6837 46.5547 49.9987 44.1951C50.1037 43.4451 50.2387 42.6951 50.3887 42.0501C51.1019 38.9043 51.4741 35.6907 51.4987 32.4651V23.0001C51.499 22.3464 51.357 21.7005 51.0824 21.1073C50.8078 20.5141 50.4073 19.9878 49.9087 19.5651Z" fill="#D92D20" stroke="#D92D20" stroke-width="0.5"/>
<path d="M24.3343 37.3248C24.1391 37.0003 23.8283 36.7616 23.4643 36.6568C23.1004 36.5519 22.7102 36.5886 22.3722 36.7595C22.0342 36.9304 21.7734 37.2229 21.6421 37.5781C21.5108 37.9334 21.5187 38.3251 21.6643 38.6748L22.7443 40.8498C23.8991 43.1492 24.5001 45.6867 24.4993 48.2598V51.4998C24.4993 51.8976 24.6574 52.2791 24.9387 52.5604C25.22 52.8417 25.6015 52.9998 25.9993 52.9998C26.3972 52.9998 26.7787 52.8417 27.06 52.5604C27.3413 52.2791 27.4993 51.8976 27.4993 51.4998V48.2598C27.4953 45.2191 26.7868 42.2207 25.4293 39.4998L24.3343 37.3248Z" fill="#D92D20" stroke="#D92D20" stroke-width="0.5"/>
<path d="M43.1748 36.6654C42.8205 36.4875 42.4102 36.4571 42.0336 36.5807C41.6569 36.7044 41.3446 36.9721 41.1648 37.3254L40.0698 39.5004C38.7123 42.2213 38.0037 45.2197 37.9998 48.2604V51.5004C37.9998 51.8982 38.1578 52.2798 38.4391 52.5611C38.7204 52.8424 39.1019 53.0004 39.4998 53.0004C39.8976 53.0004 40.2791 52.8424 40.5604 52.5611C40.8417 52.2798 40.9998 51.8982 40.9998 51.5004V48.2604C40.999 45.6874 41.6 43.1498 42.7548 40.8504L43.8348 38.6754C44.0127 38.3212 44.0431 37.9109 43.9195 37.5342C43.7958 37.1576 43.528 36.8452 43.1748 36.6654Z" fill="#D92D20" stroke="#D92D20" stroke-width="0.5"/>
<path d="M22.9993 20C22.9993 19.6022 22.8412 19.2206 22.5599 18.9393C22.2786 18.658 21.8971 18.5 21.4993 18.5H19.9993C19.6014 18.5 19.2199 18.658 18.9386 18.9393C18.6573 19.2206 18.4993 19.6022 18.4993 20C18.4993 20.3978 18.6573 20.7794 18.9386 21.0607C19.2199 21.342 19.6014 21.5 19.9993 21.5H21.4993C21.8971 21.5 22.2786 21.342 22.5599 21.0607C22.8412 20.7794 22.9993 20.3978 22.9993 20Z" fill="#D92D20"/>
</svg>
