<svg width="25" height="24" viewBox="0 0 25 24" fill="none" xmlns="http://www.w3.org/2000/svg">
<path d="M19.2573 14.0027C19.6321 14.1693 19.9028 14.4296 20.0694 14.7836C20.236 15.1168 20.2776 15.4812 20.1943 15.8769L19.5384 18.7193C19.4551 19.115 19.2677 19.4274 18.9761 19.6564C18.6846 19.8855 18.3514 20 17.9766 20C15.4152 19.9792 13.1038 19.3545 11.0422 18.1259C9.00146 16.8972 7.36678 15.2626 6.13817 13.2218C4.90955 11.1602 4.28484 8.84878 4.26401 6.28743C4.26401 5.9126 4.37854 5.57942 4.60761 5.28788C4.83667 4.99635 5.14903 4.79852 5.54468 4.6944L8.38716 4.03844C8.78281 3.95515 9.14723 4.00721 9.48041 4.19462C9.83442 4.36122 10.0947 4.63193 10.2613 5.00676L11.5732 8.09912C11.719 8.4323 11.7502 8.7759 11.6669 9.1299C11.5836 9.48391 11.3962 9.77544 11.1047 10.0045L10.0427 10.8791C10.8756 12.2743 12.0001 13.3884 13.4161 14.2214L14.2907 13.1593C14.5198 12.8678 14.8113 12.6804 15.1654 12.5971C15.5194 12.5138 15.863 12.545 16.1961 12.6908L19.2573 14.0027ZM18.7575 15.5333C18.7575 15.4708 18.7263 15.4083 18.6638 15.3459L15.6027 14.0339C15.5402 14.0131 15.4881 14.0339 15.4465 14.0964L14.197 15.5957C13.9263 15.8873 13.6244 15.9602 13.2912 15.8144C12.2292 15.2938 11.2817 14.617 10.4487 13.7841C9.63659 12.9511 8.95981 12.0036 8.41839 10.9416C8.27262 10.5876 8.34551 10.2856 8.63704 10.0357L10.1676 8.81754C10.2093 8.7759 10.2197 8.72383 10.1988 8.66136L8.88693 5.60024C8.84528 5.53777 8.80363 5.50653 8.76199 5.50653C8.74116 5.50653 8.73075 5.50653 8.73075 5.50653L5.85704 6.16249C5.79457 6.18331 5.76334 6.22496 5.76334 6.28743C5.78416 8.55724 6.336 10.6084 7.41884 12.4409C8.52251 14.2734 9.9906 15.7415 11.8231 16.8452C13.6556 17.928 15.7068 18.4799 17.9766 18.5007C18.0391 18.4799 18.0807 18.4486 18.1015 18.407L18.7575 15.5333Z" fill="#364151"/>
</svg>
