<svg width="20" height="20" viewBox="0 0 20 20" fill="none" xmlns="http://www.w3.org/2000/svg">
<path d="M2 6C2.02083 5.4375 2.21875 4.96875 2.59375 4.59375C2.96875 4.21875 3.4375 4.02083 4 4H16C16.5625 4.02083 17.0312 4.21875 17.4062 4.59375C17.7812 4.96875 17.9792 5.4375 18 6V14C17.9792 14.5625 17.7812 15.0312 17.4062 15.4062C17.0312 15.7812 16.5625 15.9792 16 16H4C3.4375 15.9792 2.96875 15.7812 2.59375 15.4062C2.21875 15.0312 2.02083 14.5625 2 14V6ZM3.5 6V6.6875L8.90625 11.125C9.23958 11.375 9.60417 11.5 10 11.5C10.3958 11.5 10.7708 11.375 11.125 11.125L16.5 6.6875V5.96875C16.4792 5.67708 16.3125 5.51042 16 5.46875H4C3.6875 5.51042 3.52083 5.67708 3.5 5.96875V6ZM3.5 8.625V14C3.52083 14.3125 3.6875 14.4792 4 14.5H16C16.3125 14.4792 16.4792 14.3125 16.5 14V8.625L12.0625 12.2812C11.4375 12.7604 10.75 13 10 13C9.25 13 8.55208 12.7604 7.90625 12.2812L3.5 8.625Z" fill="#697585"/>
</svg>
