<svg width="32" height="32" viewBox="0 0 32 32" fill="none" xmlns="http://www.w3.org/2000/svg">
<rect width="32" height="32" rx="16" fill="#EEF2F6"/>
<path d="M20.7353 19.7227C21.0261 20.0758 21.0261 20.4289 20.7353 20.7819C20.3822 21.0727 20.0292 21.0727 19.6761 20.7819L16.0001 17.0748L12.2929 20.7819C11.9398 21.0727 11.5868 21.0727 11.2337 20.7819C10.9429 20.4289 10.9429 20.0758 11.2337 19.7227L14.9409 16.0156L11.2337 12.2773C10.9429 11.9242 10.9429 11.5711 11.2337 11.2181C11.5868 10.9273 11.9398 10.9273 12.2929 11.2181L16.0001 14.9564L19.7073 11.2492C20.0603 10.9585 20.4134 10.9585 20.7664 11.2492C21.0572 11.6023 21.0572 11.9553 20.7664 12.3084L17.0593 16.0156L20.7353 19.7227Z" fill="#697585"/>
</svg>
