<svg width="33" height="32" viewBox="0 0 33 32" fill="none" xmlns="http://www.w3.org/2000/svg">
<rect x="1" y="0.5" width="31" height="31" rx="15.5" stroke="#E3E8EE"/>
<path d="M24.5 16C24.4487 16.5641 24.141 16.8718 23.5769 16.9231H17.4231V23.0769C17.3718 23.641 17.0641 23.9487 16.5 24C15.9359 23.9487 15.6282 23.641 15.5769 23.0769V16.9231H9.42308C8.85897 16.8718 8.55128 16.5641 8.5 16C8.55128 15.4359 8.85897 15.1282 9.42308 15.0769H15.5769V8.92308C15.6282 8.35897 15.9359 8.05128 16.5 8C17.0641 8.05128 17.3718 8.35897 17.4231 8.92308V15.0769H23.5769C24.141 15.1282 24.4487 15.4359 24.5 16Z" fill="#364151"/>
</svg>
