<svg width="81" height="80" viewBox="0 0 81 80" fill="none" xmlns="http://www.w3.org/2000/svg">
<circle cx="40.5" cy="40" r="40" fill="#E0EAFF"/>
<mask id="mask0_644_4532" style="mask-type:alpha" maskUnits="userSpaceOnUse" x="0" y="0" width="81" height="80">
<circle cx="40.5" cy="40" r="40" transform="rotate(180 40.5 40)" fill="#E0EAFF"/>
</mask>
<g mask="url(#mask0_644_4532)">
<g opacity="0.25">
<path d="M5.49861 92.0897C18.8116 98.5317 19.2644 68.7227 33.9971 67.2496C50.1096 65.6385 51.7645 99.2018 67.2602 89.5723C80.7837 81.1684 54.3842 63.6905 62.4956 50.11C70.7351 36.3149 102.018 52.4726 101.493 36.4479C100.787 14.8923 63.6833 43.9282 53.2461 28.0023C44.5909 14.7956 73.5993 -4.54638 56.2459 -12.2386C41.189 -18.9128 47.6954 20.4554 31.2472 21.5439C19.8721 22.2967 13.7207 0.0401841 5.4986 7.88188C-3.46493 16.4307 17.7645 23.9328 13.9981 33.9639C9.10614 46.9931 -20.5 29.7519 -20.5 43.6515C-20.5 57.5512 6.19747 41.7919 13.9982 53.3392C22.6864 66.2003 -8.5248 85.3038 5.49861 92.0897Z" stroke="#6172F3" stroke-width="3.10826"/>
</g>
</g>
<path d="M49.9435 21.0159L59.2323 20.2032L60.0454 29.4968L62.7994 60.9752L21.749 64.5666L18.995 33.0882L18.1819 23.7946L27.7703 22.9558L49.9435 21.0159Z" fill="#E0EAFF"/>
<path d="M49.2616 13.2212L49.9435 21.0159M49.9435 21.0159L59.2323 20.2032L60.0454 29.4968M49.9435 21.0159L27.7703 22.9558M27.7703 22.9558L18.1819 23.7946L18.995 33.0882M27.7703 22.9558L27.0884 15.1611M18.995 33.0882L21.749 64.5666L62.7994 60.9752L60.0454 29.4968M18.995 33.0882L60.0454 29.4968M32.9397 40.6288L48.9071 54.0342M47.6219 39.3443L34.2249 55.3187" stroke="#6172F3" stroke-width="4"/>
</svg>
