<svg width="32" height="32" viewBox="0 0 32 32" fill="none" xmlns="http://www.w3.org/2000/svg">
<path d="M22.4863 13.6724L16.5587 19.3517C16.3518 19.5173 16.1656 19.6 16.0001 19.6C15.8139 19.6 15.638 19.5276 15.4725 19.3828L9.51387 13.6724C9.36904 13.5276 9.29663 13.3517 9.29663 13.1449C9.29663 12.938 9.36904 12.7621 9.51387 12.6173C9.84491 12.3276 10.1966 12.3276 10.569 12.6173L16.0001 17.8311L21.4311 12.6173C21.8035 12.3276 22.1553 12.338 22.4863 12.6483C22.6311 12.7724 22.7035 12.938 22.7035 13.1449C22.7035 13.3517 22.6311 13.5276 22.4863 13.6724Z" fill="#697585"/>
</svg>
