<svg width="18" height="18" viewBox="0 0 18 18" fill="none" xmlns="http://www.w3.org/2000/svg">
<path d="M9.77038 2.72456L11.488 6.20469L15.3525 6.78471C15.6924 6.83744 15.925 7.022 16.0503 7.33837C16.1397 7.67232 16.0681 7.96233 15.8356 8.2084L13.0445 10.924L13.6886 14.7732C13.7423 15.1071 13.626 15.3796 13.3397 15.5905C13.0534 15.7838 12.7582 15.8014 12.4541 15.6432L8.9921 13.8504L5.55696 15.6432C5.23491 15.8014 4.93076 15.7838 4.6445 15.5905C4.37612 15.3796 4.25983 15.1071 4.29561 14.7732L4.96654 10.924L2.17548 8.2084C1.925 7.96233 1.85344 7.67232 1.96079 7.33837C2.06813 7.022 2.29178 6.83744 2.63171 6.78471L6.49625 6.20469L8.21383 2.72456C8.39274 2.42576 8.65217 2.26758 8.9921 2.25C9.34993 2.26758 9.60936 2.42576 9.77038 2.72456Z" fill="#FDB022"/>
</svg>
