<svg width="20" height="20" viewBox="0 0 20 20" fill="none" xmlns="http://www.w3.org/2000/svg">
<path d="M15 4.5H5C4.6875 4.52083 4.52083 4.6875 4.5 5V15C4.52083 15.3125 4.6875 15.4792 5 15.5H12V13C12 12.7083 12.0938 12.4688 12.2812 12.2812C12.4688 12.0938 12.7083 12 13 12H15.5V5C15.4792 4.6875 15.3125 4.52083 15 4.5ZM5 17C4.4375 16.9792 3.96875 16.7812 3.59375 16.4062C3.21875 16.0312 3.02083 15.5625 3 15V5C3.02083 4.4375 3.21875 3.96875 3.59375 3.59375C3.96875 3.21875 4.4375 3.02083 5 3H15C15.5625 3.02083 16.0312 3.21875 16.4062 3.59375C16.7812 3.96875 16.9792 4.4375 17 5V12V12.1875C17 12.7292 16.8021 13.1979 16.4062 13.5938L13.5938 16.4062C13.1979 16.8021 12.7292 17 12.1875 17H5H12H5ZM7 13.25C6.95833 13.7083 6.70833 13.9583 6.25 14C5.79167 13.9583 5.54167 13.7083 5.5 13.25C5.54167 12.7917 5.79167 12.5417 6.25 12.5C6.70833 12.5417 6.95833 12.7917 7 13.25ZM6.25 6C6.70833 6.04167 6.95833 6.29167 7 6.75C6.95833 7.20833 6.70833 7.45833 6.25 7.5C5.79167 7.45833 5.54167 7.20833 5.5 6.75C5.54167 6.29167 5.79167 6.04167 6.25 6ZM7 10C6.95833 10.4583 6.70833 10.7083 6.25 10.75C5.79167 10.7083 5.54167 10.4583 5.5 10C5.54167 9.54167 5.79167 9.29167 6.25 9.25C6.70833 9.29167 6.95833 9.54167 7 10Z" fill="#697585"/>
</svg>
