<svg width="20" height="20" viewBox="0 0 20 20" fill="none" xmlns="http://www.w3.org/2000/svg">
<path d="M10 2C11.5 2.02083 12.8438 2.38542 14.0312 3.09375C15.2396 3.80208 16.1979 4.76042 16.9062 5.96875C17.6146 7.15625 17.9792 8.5 18 10C17.9792 11.5 17.6146 12.8438 16.9062 14.0312C16.1979 15.2396 15.2396 16.1979 14.0312 16.9062C12.8438 17.6146 11.5 17.9792 10 18C8.5 17.9792 7.15625 17.6146 5.96875 16.9062C4.76042 16.1979 3.80208 15.2396 3.09375 14.0312C2.38542 12.8438 2.02083 11.5 2 10C2.02083 8.5 2.38542 7.15625 3.09375 5.96875C3.80208 4.76042 4.76042 3.80208 5.96875 3.09375C7.15625 2.38542 8.5 2.02083 10 2ZM10 16.5C11.8333 16.4583 13.3646 15.8229 14.5938 14.5938C15.8229 13.3646 16.4583 11.8333 16.5 10C16.4583 8.16667 15.8229 6.63542 14.5938 5.40625C13.3646 4.17708 11.8333 3.54167 10 3.5C8.16667 3.54167 6.63542 4.17708 5.40625 5.40625C4.17708 6.63542 3.54167 8.16667 3.5 10C3.54167 11.8333 4.17708 13.3646 5.40625 14.5938C6.63542 15.8229 8.16667 16.4583 10 16.5ZM10 11.5C9.54167 11.4583 9.29167 11.2083 9.25 10.75V6.75C9.29167 6.29167 9.54167 6.04167 10 6C10.4583 6.04167 10.7083 6.29167 10.75 6.75V10.75C10.7083 11.2083 10.4583 11.4583 10 11.5ZM10 12.5312C10.2708 12.5312 10.5 12.625 10.6875 12.8125C10.875 13 10.9688 13.2396 10.9688 13.5312C10.9688 13.8021 10.875 14.0312 10.6875 14.2188C10.5 14.4062 10.2708 14.5 10 14.5C9.72917 14.5 9.5 14.4062 9.3125 14.2188C9.125 14.0312 9.03125 13.8021 9.03125 13.5312C9.03125 13.2396 9.125 13 9.3125 12.8125C9.5 12.625 9.72917 12.5312 10 12.5312Z" fill="#F79009"/>
</svg>
