<svg width="32" height="32" viewBox="0 0 32 32" fill="none" xmlns="http://www.w3.org/2000/svg">
<g clip-path="url(#clip0_294_5749)">
<path d="M0 16C0 7.16344 7.16344 0 16 0C24.8366 0 32 7.16344 32 16C32 24.8366 24.8366 32 16 32C7.16344 32 0 24.8366 0 16Z" fill="#CCFBEF"/>
<path d="M23.7318 10.6816C24.0894 11.0868 24.0894 11.4801 23.7318 11.8614L14.2927 21.3006C13.9114 21.6581 13.5181 21.6581 13.1128 21.3006L8.25028 16.438C7.91657 16.0566 7.91657 15.6633 8.25028 15.2581C8.65549 14.9244 9.06071 14.9244 9.46592 15.2581L13.7207 19.5128L22.552 10.6816C22.9572 10.3479 23.3505 10.3479 23.7318 10.6816Z" fill="#0E9384"/>
</g>
<path d="M0.5 16C0.5 7.43959 7.43959 0.5 16 0.5C24.5604 0.5 31.5 7.43959 31.5 16C31.5 24.5604 24.5604 31.5 16 31.5C7.43959 31.5 0.5 24.5604 0.5 16Z" stroke="#2ED3B7"/>
<defs>
<clipPath id="clip0_294_5749">
<path d="M0 16C0 7.16344 7.16344 0 16 0C24.8366 0 32 7.16344 32 16C32 24.8366 24.8366 32 16 32C7.16344 32 0 24.8366 0 16Z" fill="white"/>
</clipPath>
</defs>
</svg>
