<svg width="64" height="64" viewBox="0 0 64 64" fill="none" xmlns="http://www.w3.org/2000/svg">
<rect width="64" height="64" rx="32" fill="#E0EAFF"/>
<g clip-path="url(#clip0_766_7635)">
<path d="M24.4165 24.4165C20.2632 24.4165 18.0265 26.9622 16.1731 28.3753C15.2463 29.0819 14.4175 29.5595 13.2679 29.7316C12.1184 29.9037 10.5524 29.7639 8.21098 28.8599C7.96482 28.7647 7.6992 28.7309 7.43706 28.7615C7.17493 28.792 6.92417 28.8859 6.70646 29.0351C6.48876 29.1842 6.31065 29.3842 6.18754 29.6176C6.06443 29.851 6.00002 30.1109 5.99988 30.3748C5.99988 34.9959 9.02044 38.066 12.3306 39.6763C15.6408 41.2865 19.3111 41.7498 21.7082 41.7498C25.2209 41.7498 28.0337 40.9024 30.0236 39.342C30.8871 38.6648 31.4951 37.8013 31.9999 36.8981C32.5046 37.8013 33.1126 38.6648 33.9761 39.342C35.966 40.9024 38.7788 41.7498 42.2915 41.7498C44.6887 41.7498 48.359 41.2865 51.6692 39.6763C54.9793 38.066 57.9999 34.9959 57.9999 30.3748C57.9997 30.1109 57.9353 29.851 57.8122 29.6176C57.6891 29.3842 57.511 29.1842 57.2933 29.0351C57.0756 28.8859 56.8248 28.792 56.5627 28.7615C56.3006 28.7309 56.0349 28.7647 55.7888 28.8599C53.4473 29.7639 51.8814 29.9037 50.7318 29.7316C49.5822 29.5595 48.7535 29.0819 47.8267 28.3753C45.9732 26.9622 43.7365 24.4165 39.5832 24.4165C36.2639 24.4165 33.4545 26.3669 31.9999 29.1243C30.5453 26.3669 27.7358 24.4165 24.4165 24.4165ZM24.4165 27.6665C27.4276 27.6665 29.8332 30.0721 29.8332 33.0832C29.8332 34.5751 29.2779 35.7957 28.0178 36.7839C26.7577 37.772 24.6955 38.4998 21.7082 38.4998C19.772 38.4998 16.4007 38.0424 13.7525 36.7542C11.7759 35.7927 10.2438 34.5387 9.59265 32.6007C11.129 32.954 12.5457 33.1256 13.7483 32.9456C15.5912 32.6698 17.0111 31.8218 18.1429 30.9588C20.4067 29.233 21.5282 27.6665 24.4165 27.6665ZM39.5832 27.6665C42.4715 27.6665 43.5931 29.233 45.8568 30.9588C46.9887 31.8218 48.4086 32.6698 50.2515 32.9456C51.4541 33.1256 52.8708 32.954 54.4071 32.6007C53.756 34.5387 52.2239 35.7927 50.2473 36.7542C47.5991 38.0424 44.2277 38.4998 42.2915 38.4998C39.3043 38.4998 37.2421 37.772 35.982 36.7839C34.7219 35.7957 34.1665 34.5751 34.1665 33.0832C34.1665 30.0721 36.5722 27.6665 39.5832 27.6665Z" fill="#444CE7"/>
</g>
<defs>
<clipPath id="clip0_766_7635">
<rect width="52" height="52" fill="white" transform="translate(6 6)"/>
</clipPath>
</defs>
</svg>
