<svg width="40" height="40" viewBox="0 0 40 40" fill="none" xmlns="http://www.w3.org/2000/svg">
<path d="M28.6482 16.8966L20.7448 24.469C20.4689 24.6897 20.2206 24.8 19.9999 24.8C19.7517 24.8 19.5172 24.7035 19.2965 24.5104L11.3517 16.8966C11.1586 16.7035 11.062 16.469 11.062 16.1931C11.062 15.9173 11.1586 15.6828 11.3517 15.4897C11.793 15.1035 12.262 15.1035 12.7586 15.4897L19.9999 22.4414L27.2413 15.4897C27.7379 15.1035 28.2068 15.1173 28.6482 15.531C28.8413 15.6966 28.9379 15.9173 28.9379 16.1931C28.9379 16.469 28.8413 16.7035 28.6482 16.8966Z" fill="#697585"/>
</svg>
