<svg width="24" height="24" viewBox="0 0 24 24" fill="none" xmlns="http://www.w3.org/2000/svg">
<path d="M10.4139 4.79307L16.7243 11.3793C16.9082 11.6092 17.0001 11.8161 17.0001 12C17.0001 12.2069 16.9197 12.4023 16.7587 12.5862L10.4139 19.2069C10.253 19.3678 10.0576 19.4482 9.82771 19.4482C9.59782 19.4482 9.40242 19.3678 9.2415 19.2069C8.91966 18.839 8.91966 18.4482 9.2415 18.0344L15.0346 12L9.2415 5.96548C8.91966 5.55169 8.93116 5.16089 9.27598 4.79307C9.41391 4.63215 9.59782 4.55169 9.82771 4.55169C10.0576 4.55169 10.253 4.63215 10.4139 4.79307Z" fill="white"/>
</svg>
