<svg width="40" height="40" viewBox="0 0 40 40" fill="none" xmlns="http://www.w3.org/2000/svg">
<path d="M11.3518 23.1034L19.2552 15.531C19.5311 15.3103 19.7794 15.2 20.0001 15.2C20.2483 15.2 20.4828 15.2966 20.7035 15.4897L28.6483 23.1034C28.8414 23.2966 28.938 23.531 28.938 23.8069C28.938 24.0828 28.8414 24.3172 28.6483 24.5103C28.207 24.8966 27.738 24.8966 27.2414 24.5103L20.0001 17.5586L12.7587 24.5103C12.2621 24.8966 11.7932 24.8828 11.3518 24.469C11.1587 24.3034 11.0621 24.0828 11.0621 23.8069C11.0621 23.531 11.1587 23.2966 11.3518 23.1034Z" fill="#697585"/>
</svg>
