<svg width="40" height="40" viewBox="0 0 40 40" fill="none" xmlns="http://www.w3.org/2000/svg">
<rect width="40" height="40" rx="20" fill="#E3E8EE"/>
<path d="M20 8.75C20.4472 8.77932 20.7752 8.98457 20.9839 9.36575L24.0248 15.5672L30.867 16.5788C31.3142 16.6375 31.6124 16.872 31.7614 17.2825C31.8807 17.693 31.7913 18.0449 31.4931 18.3381L26.5292 23.1761L27.6919 30.0373C27.7515 30.4478 27.6025 30.785 27.2447 31.0489C26.8571 31.2835 26.4845 31.3128 26.1267 31.1369L20 27.9262L13.8286 31.1369C13.4709 31.3128 13.1131 31.2835 12.7553 31.0489C12.3976 30.785 12.2336 30.4478 12.2634 30.0373L13.4709 23.1761L8.5069 18.3381C8.20876 18.0449 8.11932 17.693 8.23858 17.2825C8.38765 16.872 8.67087 16.6375 9.08826 16.5788L15.9752 15.5672L19.0162 9.36575C19.2249 8.98457 19.5528 8.77932 20 8.75ZM20 12.2246L17.6298 16.9747C17.4808 17.2972 17.2124 17.5024 16.8249 17.5904L11.5479 18.3381L15.3938 22.0766C15.6323 22.3405 15.7367 22.6484 15.7069 23.0002L14.7677 28.2781L19.5081 25.8151C19.836 25.6391 20.164 25.6391 20.4919 25.8151L25.1876 28.2781L24.2932 23.0002C24.2335 22.6484 24.3379 22.3405 24.6062 22.0766L28.4521 18.3381L23.1752 17.5904C22.7876 17.5024 22.5193 17.2972 22.3702 16.9747L20 12.2246Z" fill="#697585"/>
</svg>
