<svg width="64" height="64" viewBox="0 0 64 64" fill="none" xmlns="http://www.w3.org/2000/svg">
<rect width="64" height="64" rx="32" fill="#E0F2FE"/>
<path d="M25.0672 12.9343C21.1672 12.9343 18.0216 14.4592 15.9706 16.7666C13.9196 19.074 12.9338 22.0825 12.9338 25.0677C12.9338 29.5384 13.7328 32.3853 14.5927 34.4656C15.4526 36.5458 16.2017 37.7153 16.4174 39.1849V39.1882C16.7202 41.2467 17.1127 43.9282 17.9815 46.2739C18.4159 47.4468 18.9635 48.5543 19.813 49.4664C20.6625 50.3783 21.927 51.0677 23.3338 51.0677C25.5177 51.0677 27.2877 49.8778 28.2833 48.4101C29.2789 46.9424 29.7411 45.2602 30.1419 43.6976C30.5427 42.135 30.8811 40.6656 31.2659 39.801C31.4583 39.3687 31.653 39.1138 31.7568 39.0224C31.8605 38.9309 31.829 38.9343 32.0005 38.9343C32.172 38.9343 32.1405 38.9309 32.2443 39.0224C32.348 39.1138 32.5428 39.3687 32.7351 39.801C33.1199 40.6656 33.4583 42.135 33.8591 43.6976C34.2599 45.2602 34.7221 46.9424 35.7177 48.4101C36.7133 49.8778 38.4833 51.0677 40.6672 51.0677C42.074 51.0677 43.3385 50.3784 44.188 49.4664C45.0375 48.5543 45.5851 47.4468 46.0195 46.2739C46.8883 43.9282 47.2808 41.2467 47.5836 39.1882V39.1849C47.7994 37.7153 48.5484 36.5458 49.4083 34.4656C50.2682 32.3854 51.0672 29.5384 51.0672 25.0677C51.0672 22.0825 50.0815 19.074 48.0305 16.7666C45.9795 14.4592 42.8338 12.9343 38.9338 12.9343C36.1412 12.9343 34.1793 13.4041 32.8739 13.9263C32.4259 14.1055 32.0627 14.3018 31.7466 14.4916C29.9892 13.6023 27.7791 12.9343 25.0672 12.9343ZM25.0672 16.401C31.6278 16.401 33.9674 20.7377 33.9674 20.7377C34.0817 20.9347 34.2336 21.1073 34.4145 21.2456C34.5954 21.3839 34.8018 21.4852 35.0219 21.5438C35.242 21.6023 35.4715 21.6169 35.6972 21.5867C35.9229 21.5565 36.1405 21.4821 36.3375 21.3679C36.5345 21.2536 36.707 21.1016 36.8453 20.9206C36.9835 20.7397 37.0848 20.5332 37.1432 20.3131C37.2017 20.093 37.2162 19.8635 37.1859 19.6378C37.1557 19.4121 37.0813 19.1946 36.9669 18.9976C36.9669 18.9976 36.3393 18.0136 35.0948 16.8445C35.9869 16.6048 37.2226 16.401 38.9338 16.401C41.9672 16.401 44.0216 17.4761 45.4372 19.0687C46.8529 20.6613 47.6005 22.8528 47.6005 25.0677C47.6005 29.144 46.9418 31.3611 46.2057 33.1419C45.4696 34.9226 44.4845 36.4111 44.1508 38.6838C43.8504 40.7259 43.4465 43.2407 42.7695 45.0687C42.4308 45.9832 42.0189 46.7062 41.6489 47.1033C41.279 47.5005 41.0665 47.601 40.6672 47.601C39.5429 47.601 39.1362 47.2742 38.5885 46.4669C38.0409 45.6596 37.5947 44.3084 37.2174 42.8377C36.8402 41.367 36.5316 39.8031 35.9039 38.3927C35.5901 37.6875 35.1881 36.9944 34.5396 36.4223C33.9733 35.9228 33.1837 35.5835 32.3594 35.5015C32.2412 35.4778 32.121 35.4664 32.0005 35.4677C31.8789 35.4662 31.7575 35.4776 31.6383 35.5015C30.8152 35.5842 30.027 35.9235 29.4614 36.4223C28.8129 36.9944 28.411 37.6875 28.0971 38.3927C27.4695 39.8031 27.1608 41.367 26.7836 42.8377C26.4063 44.3084 25.9601 45.6596 25.4125 46.4669C24.8648 47.2742 24.4581 47.601 23.3338 47.601C22.9345 47.601 22.722 47.5005 22.3521 47.1033C21.9821 46.7062 21.5702 45.9832 21.2315 45.0687C20.5545 43.2407 20.1506 40.7259 19.8502 38.6838V38.6804C19.516 36.4099 18.531 34.9217 17.7953 33.1419C17.0592 31.3611 16.4005 29.144 16.4005 25.0677C16.4005 22.8528 17.1481 20.6613 18.5638 19.0687C19.9794 17.4761 22.0338 16.401 25.0672 16.401Z" fill="#0086C9"/>
</svg>
