<svg width="18" height="18" viewBox="0 0 18 18" fill="none" xmlns="http://www.w3.org/2000/svg">
<path d="M9.00001 2.25C9.26833 2.26759 9.4651 2.39074 9.59031 2.61945L11.4149 6.34034L15.5202 6.94729C15.7885 6.98248 15.9674 7.12322 16.0569 7.36952C16.1284 7.61582 16.0748 7.82693 15.8959 8.00286L12.9175 10.9057L13.6151 15.0224C13.6509 15.2687 13.5615 15.471 13.3468 15.6294C13.1143 15.7701 12.8907 15.7877 12.676 15.6821L9.00001 13.7557L5.29717 15.6821C5.08251 15.7877 4.86785 15.7701 4.65319 15.6294C4.43854 15.471 4.34015 15.2687 4.35804 15.0224L5.08251 10.9057L2.10414 8.00286C1.92526 7.82693 1.87159 7.61582 1.94314 7.36952C2.03259 7.12322 2.20252 6.98248 2.45296 6.94729L6.58511 6.34034L8.4097 2.61945C8.53491 2.39074 8.73168 2.26759 9.00001 2.25ZM9.00001 4.33475L7.5779 7.18479C7.48846 7.37832 7.32747 7.50147 7.09492 7.55424L3.92873 8.00286L6.23629 10.246C6.3794 10.4043 6.44201 10.589 6.42412 10.8001L5.86064 13.9668L8.70485 12.489C8.90162 12.3835 9.09839 12.3835 9.29516 12.489L12.1125 13.9668L11.5759 10.8001C11.5401 10.589 11.6027 10.4043 11.7637 10.246L14.0713 8.00286L10.9051 7.55424C10.6725 7.50147 10.5116 7.37832 10.4221 7.18479L9.00001 4.33475Z" fill="#FDB022"/>
</svg>
