<svg width="80" height="80" viewBox="0 0 80 80" fill="none" xmlns="http://www.w3.org/2000/svg">
<circle cx="40" cy="40" r="40" fill="#E0EAFF"/>
<g opacity="0.25">
<path d="M46.6575 14.2968C50.9177 13.8709 54.0513 11.3875 56.5123 8.31298C57.391 7.21534 58.2039 6.01633 58.9676 4.77433C58.0537 4.28121 57.1185 3.82261 56.1636 3.40029C55.5066 4.4537 54.82 5.45328 54.0857 6.37056C51.9023 9.09826 49.4545 10.8934 46.3483 11.204C42.9605 11.5427 40.276 10.078 37.8074 7.51083C35.9727 5.60271 34.3615 3.19657 32.7614 0.65332C31.6743 0.852025 30.6026 1.09467 29.5481 1.37936C31.3431 4.26573 33.2901 7.29737 35.5669 9.66521C38.4246 12.6371 41.9891 14.7636 46.6575 14.2968Z" fill="#6172F3"/>
<path d="M15.4676 8.40401C14.6323 9.05348 13.8235 9.73534 13.043 10.4477C14.7445 13.5548 16.3744 16.6177 17.2938 19.6302C18.3433 23.0691 18.3923 26.2099 16.6702 29.0931C14.9421 31.9865 11.9687 33.419 8.10748 34.0578C5.70658 34.455 3.08095 34.5267 0.376934 34.4862C0.235891 35.5092 0.133532 36.5446 0.0713806 37.5907C2.96518 37.6404 5.90563 37.5726 8.61481 37.1244C12.9202 36.4121 16.9471 34.6912 19.3387 30.687C21.6723 26.78 21.4631 22.6433 20.2667 18.7229C19.19 15.195 17.2535 11.6553 15.4676 8.40401Z" fill="#6172F3"/>
<path d="M0.793776 47.9685C1.00028 48.99 1.2457 49.9975 1.52844 50.9892C6.37532 49.8139 11.1945 48.6694 15.4571 48.5441C20.1736 48.4054 23.7744 49.5237 25.9541 52.8496C27.7521 55.5932 27.6778 58.7249 26.5182 62.2951C25.5241 65.3555 23.8173 68.4921 22.0767 71.6906L22.0757 71.6924C21.7579 72.2765 21.439 72.8626 21.1231 73.4506C20.8717 73.9185 20.6211 74.3896 20.3747 74.8628C21.2755 75.371 22.198 75.8452 23.1404 76.2839C23.3721 75.8379 23.613 75.3838 23.8612 74.9216C24.1581 74.3689 24.4646 73.8064 24.7755 73.2359C26.5113 70.0503 28.3831 66.6152 29.4744 63.2553C30.7773 59.2441 31.0833 55.0056 28.5538 51.1459C25.5148 46.5088 20.5638 45.2844 15.3657 45.4372C10.7494 45.5729 5.59683 46.8019 0.793776 47.9685Z" fill="#6172F3"/>
<path d="M34.2873 79.5952C35.3175 79.7425 36.3603 79.8505 37.4143 79.9178C37.5225 79.4937 37.6297 79.0694 37.7367 78.6463L37.7712 78.5099C38.9297 73.9265 40.0839 69.3607 41.9048 65.8476C43.7208 62.3441 46.0151 60.2279 49.3554 60.0069C51.6463 59.8552 53.7846 60.8455 55.9432 62.5859C57.8737 64.1423 59.6548 66.1579 61.4542 68.1942L61.4571 68.1975C61.6868 68.4575 61.9168 68.7178 62.1475 68.9775C62.9289 69.8574 63.7328 70.7496 64.5588 71.5755C65.3805 70.9355 66.1766 70.2641 66.9452 69.5632C66.1709 68.8007 65.3526 67.9056 64.4715 66.9135C64.2477 66.6616 64.0208 66.4044 63.7905 66.1435L63.7866 66.1392C62.0122 64.1288 60.045 61.9002 57.8941 60.1661C55.4431 58.1901 52.5468 56.6806 49.1501 56.9054C44.2663 57.2286 41.2059 60.4416 39.1453 64.4172C37.1563 68.2545 35.9277 73.1174 34.8085 77.5471L34.725 77.8775C34.5776 78.4604 34.4322 79.0335 34.2873 79.5952Z" fill="#6172F3"/>
<path d="M73.0898 62.4806C73.7033 61.5794 74.2809 60.6518 74.8206 59.6999C74.503 59.3276 74.182 58.9618 73.8643 58.6029C73.6101 58.3158 73.3567 58.0317 73.1054 57.7499L73.1034 57.7477C71.4574 55.9026 69.9022 54.1592 68.8414 52.3538C67.6527 50.3307 67.2417 48.4871 67.9568 46.5824C68.8939 44.0866 70.9787 42.9189 74.1488 42.5225C75.8968 42.304 77.8532 42.3391 79.9236 42.4931C79.9743 41.6686 80 40.8373 80 40C80 39.7935 79.9985 39.5874 79.9953 39.3816C77.8371 39.2282 75.7063 39.1953 73.7632 39.4383C70.0063 39.908 66.5558 41.471 65.0469 45.4898C63.8789 48.6007 64.7091 51.4565 66.1615 53.9284C67.3919 56.0224 69.181 58.0244 70.8069 59.8437L70.8088 59.8458C71.0561 60.1226 71.2997 60.3951 71.5369 60.6631C72.0964 61.2952 72.6181 61.8992 73.0898 62.4806Z" fill="#6172F3"/>
<path d="M79.3462 32.7588C79.1551 31.7134 78.9233 30.6821 78.6525 29.6667C77.5113 29.6848 76.402 29.6525 75.3393 29.5452C71.9598 29.2038 69.3723 28.1336 67.7897 25.7909C66.0285 23.1838 66.187 20.1864 67.5792 16.7127C68.0782 15.4677 68.7186 14.2052 69.4495 12.9308C68.724 12.1419 67.9673 11.3823 67.1812 10.6538C66.2154 12.2765 65.3491 13.9218 64.694 15.5564C63.1159 19.4939 62.6311 23.7074 65.2141 27.5309C67.5318 30.9618 71.2067 32.2518 75.0269 32.6377C76.4205 32.7784 77.8758 32.8028 79.3462 32.7588Z" fill="#6172F3"/>
</g>
<path d="M52.5996 23.4103L61.7451 24.2104L60.9445 33.3607L58.233 64.3534L17.816 60.8173L20.5275 29.8246L21.328 20.6744L30.7685 21.5003L52.5996 23.4103Z" fill="#E0EAFF"/>
<path d="M53.271 15.7359L52.5996 23.4103M52.5996 23.4103L61.7451 24.2104L60.9445 33.3607M52.5996 23.4103L30.7685 21.5003M30.7685 21.5003L21.328 20.6744L20.5275 29.8246M30.7685 21.5003L31.4399 13.8259M20.5275 29.8246L17.816 60.8173L58.233 64.3534L60.9445 33.3607M20.5275 29.8246L60.9445 33.3607" stroke="#6172F3" stroke-width="4"/>
<path d="M31.9133 42.2355C30.5699 42.0879 29.5903 41.3993 28.9745 40.17C28.4211 38.9159 28.5258 37.7195 29.2885 36.5806C30.1084 35.4768 31.1927 34.9689 32.5414 35.0567C33.8848 35.2044 34.8644 35.8929 35.4802 37.1223C36.0336 38.3763 35.9289 39.5728 35.1662 40.7117C34.3463 41.8154 33.262 42.3234 31.9133 42.2355ZM48.4246 43.6801C47.0812 43.5324 46.1016 42.8439 45.4858 41.6145C44.9324 40.3605 45.0371 39.164 45.7998 38.0251C46.6197 36.9214 47.704 36.4134 49.0527 36.5013C50.3961 36.6489 51.3757 37.3375 51.9915 38.5668C52.5449 39.8209 52.4402 41.0173 51.6775 42.1562C50.8576 43.26 49.7733 43.7679 48.4246 43.6801ZM24.9067 47.9069C25.057 46.5336 25.6201 45.4375 26.596 44.6186C27.5718 43.7998 28.749 43.4356 30.1276 43.5261L32.012 43.6909C32.7299 43.7537 33.3899 43.9622 33.9918 44.3162C33.9032 44.64 33.8445 44.9665 33.8157 45.2955C33.7212 47.0655 34.2387 48.5575 35.3682 49.7716L25.7665 48.9315C25.2034 48.822 24.9168 48.4804 24.9067 47.9069ZM42.9957 50.4389C44.3189 49.4395 45.0876 48.06 45.3019 46.3004C45.3306 45.9714 45.3295 45.6397 45.2985 45.3055C45.9528 45.0613 46.6389 44.9706 47.3568 45.0334L49.2412 45.1983C50.6145 45.3486 51.7106 45.9117 52.5295 46.8875C53.3483 47.8634 53.7125 49.0406 53.622 50.4191C53.5125 50.9822 53.1709 51.2688 52.5974 51.2789L42.9957 50.4389L52.5974 51.2789L42.9957 50.4389ZM39.7472 43.6443C38.937 43.6035 38.2774 43.9075 37.7686 44.5562C37.3468 45.2427 37.284 45.9606 37.5801 46.7099C37.9686 47.4371 38.5654 47.851 39.3704 47.9516C40.1806 47.9923 40.8402 47.6883 41.349 47.0396C41.7708 46.3532 41.8336 45.6353 41.5375 44.886C41.149 44.1588 40.5522 43.7449 39.7472 43.6443ZM39.182 50.1052C38.4043 50.0372 37.7034 49.78 37.0793 49.3335C36.4553 48.8871 35.9776 48.3179 35.6464 47.6258C35.3177 46.9038 35.1861 46.1689 35.2515 45.4211C35.3169 44.6733 35.5742 43.9724 36.0232 43.3185C36.4696 42.6944 37.0389 42.2168 37.731 41.8855C38.423 41.5542 39.1579 41.4226 39.9356 41.4906C40.7133 41.5587 41.4142 41.8159 42.0383 42.2623C42.6623 42.7088 43.14 43.278 43.4712 43.9701C43.7999 44.6921 43.9315 45.427 43.8661 46.1748C43.8007 46.9226 43.5434 47.6234 43.0944 48.2774C42.648 48.9014 42.0787 49.3791 41.3866 49.7104C40.6946 50.0417 39.9597 50.1733 39.182 50.1052ZM36.2207 53.463C35.3208 53.4145 34.5195 53.6156 33.817 54.0665C33.0819 54.5448 32.573 55.1935 32.2904 56.0127L44.943 57.1197C44.8069 56.2638 44.4184 55.5366 43.7776 54.938C43.164 54.3719 42.4099 54.0347 41.5151 53.9262L36.2207 53.463L41.5151 53.9262L36.2207 53.463ZM36.4092 51.3094L41.7035 51.7726C43.376 51.9491 44.7308 52.6553 45.768 53.8914C46.8052 55.1275 47.2655 56.5844 47.1489 58.2621C47.0236 59.0046 46.5845 59.3731 45.8314 59.3675L31.0251 58.0721C30.2826 57.9469 29.9141 57.5077 29.9197 56.7547C30.0961 55.0823 30.8024 53.7275 32.0385 52.6902C33.2746 51.653 34.7315 51.1928 36.4092 51.3094Z" fill="#6172F3"/>
</svg>
