<svg width="20" height="20" viewBox="0 0 20 20" fill="none" xmlns="http://www.w3.org/2000/svg">
<g clip-path="url(#clip0_190_4844)">
<path d="M0 2.50003H20V17.5H0V2.50003Z" fill="#012169"/>
<path d="M2.34375 2.50003L9.96875 8.15626L17.5625 2.50003H20V4.43752L12.5 10.0313L20 15.5937V17.5H17.5L10 11.9062L2.53125 17.5H0V15.625L7.46875 10.0625L0 4.50002V2.50003H2.34375Z" fill="white"/>
<path d="M13.25 11.2812L20 16.25V17.5L11.5312 11.2812H13.25ZM7.5 11.9062L7.6875 13L1.6875 17.5H0L7.5 11.9062ZM20 2.50003V2.59378L12.2188 8.46876L12.2812 7.09376L18.4375 2.50003H20ZM0 2.50003L7.46875 8.00001H5.59375L0 3.81253V2.50003Z" fill="#C8102E"/>
<path d="M7.53125 2.50003V17.5H12.5312V2.50003H7.53125ZM0 7.50001V12.5H20V7.50001H0Z" fill="white"/>
<path d="M0 8.53126V11.5312H20V8.53126H0ZM8.53125 2.50003V17.5H11.5312V2.50003H8.53125Z" fill="#C8102E"/>
</g>
<rect x="0.25" y="2.75003" width="19.5" height="14.4999" rx="2.75" stroke="#CDD5DF" stroke-width="0.5"/>
<defs>
<clipPath id="clip0_190_4844">
<rect y="2.50003" width="20" height="14.9999" rx="3" fill="white"/>
</clipPath>
</defs>
</svg>
