<svg width="64" height="64" viewBox="0 0 64 64" fill="none" xmlns="http://www.w3.org/2000/svg">
<rect width="64" height="64" rx="32" fill="#E3E8EE"/>
<path d="M48.5545 18.9377C48.5502 16.5686 47.6072 14.2978 45.9321 12.6226C44.2569 10.9475 41.9861 10.0045 39.617 10.0002H24.992C23.1409 9.98887 21.3319 10.5527 19.8149 11.6137C18.298 12.6747 17.1479 14.1806 16.5236 15.9233C15.8993 17.666 15.8315 19.5596 16.3297 21.3425C16.8278 23.1255 17.8673 24.7097 19.3045 25.8764C19.2876 26.033 19.2876 26.191 19.3045 26.3477L20.3608 44.2227C20.5205 47.2826 21.8485 50.1645 24.0708 52.274C26.2932 54.3834 29.2404 55.5594 32.3045 55.5594C35.3686 55.5594 38.3158 54.3834 40.5382 52.274C42.7606 50.1645 44.0886 47.2826 44.2483 44.2227L45.3045 26.3477C45.3215 26.191 45.3215 26.033 45.3045 25.8764C46.3268 25.0331 47.1487 23.9731 47.7108 22.773C48.2729 21.5729 48.5611 20.2628 48.5545 18.9377ZM40.9983 44.1252C40.8629 46.339 39.888 48.4178 38.2724 49.9375C36.6569 51.4572 34.5225 52.3034 32.3045 52.3034C30.0866 52.3034 27.9521 51.4572 26.3366 49.9375C24.7211 48.4178 23.7462 46.339 23.6108 44.1252L22.6358 27.6314C23.4026 27.8474 24.1954 27.9568 24.992 27.9564H39.617C40.4447 27.938 41.2656 27.8012 42.0545 27.5502L40.9983 44.1252ZM39.617 24.6252H24.992C23.4836 24.6252 22.037 24.0259 20.9704 22.9593C19.9037 21.8927 19.3045 20.4461 19.3045 18.9377C19.3045 17.4292 19.9037 15.9826 20.9704 14.916C22.037 13.8494 23.4836 13.2502 24.992 13.2502H39.617C41.1254 13.2502 42.5721 13.8494 43.6387 14.916C44.7053 15.9826 45.3045 17.4292 45.3045 18.9377C45.3045 20.4461 44.7053 21.8927 43.6387 22.9593C42.5721 24.0259 41.1254 24.6252 39.617 24.6252Z" fill="#4B5564"/>
<path d="M32.3008 14.875C31.8698 14.875 31.4565 15.0462 31.1517 15.351C30.847 15.6557 30.6758 16.069 30.6758 16.5V21.375C30.6758 21.806 30.847 22.2193 31.1517 22.524C31.4565 22.8288 31.8698 23 32.3008 23C32.7318 23 33.1451 22.8288 33.4498 22.524C33.7546 22.2193 33.9258 21.806 33.9258 21.375V16.5C33.9258 16.069 33.7546 15.6557 33.4498 15.351C33.1451 15.0462 32.7318 14.875 32.3008 14.875Z" fill="#4B5564"/>
<path d="M38.8003 14.875C38.3693 14.875 37.956 15.0462 37.6512 15.351C37.3465 15.6557 37.1753 16.069 37.1753 16.5V21.375C37.1753 21.806 37.3465 22.2193 37.6512 22.524C37.956 22.8288 38.3693 23 38.8003 23C39.2313 23 39.6446 22.8288 39.9493 22.524C40.2541 22.2193 40.4253 21.806 40.4253 21.375V16.5C40.4253 16.069 40.2541 15.6557 39.9493 15.351C39.6446 15.0462 39.2313 14.875 38.8003 14.875Z" fill="#4B5564"/>
<path d="M25.8005 14.875C25.3696 14.875 24.9562 15.0462 24.6515 15.351C24.3467 15.6557 24.1755 16.069 24.1755 16.5V21.375C24.1755 21.806 24.3467 22.2193 24.6515 22.524C24.9562 22.8288 25.3696 23 25.8005 23C26.2315 23 26.6448 22.8288 26.9496 22.524C27.2543 22.2193 27.4255 21.806 27.4255 21.375V16.5C27.4255 16.069 27.2543 15.6557 26.9496 15.351C26.6448 15.0462 26.2315 14.875 25.8005 14.875Z" fill="#4B5564"/>
<path d="M33.9253 40.875H30.6753C30.2443 40.875 29.831 41.0462 29.5262 41.351C29.2215 41.6557 29.0503 42.069 29.0503 42.5C29.0503 42.931 29.2215 43.3443 29.5262 43.649C29.831 43.9538 30.2443 44.125 30.6753 44.125H33.9253C34.3563 44.125 34.7696 43.9538 35.0743 43.649C35.3791 43.3443 35.5503 42.931 35.5503 42.5C35.5503 42.069 35.3791 41.6557 35.0743 41.351C34.7696 41.0462 34.3563 40.875 33.9253 40.875Z" fill="#4B5564"/>
</svg>
