<svg width="64" height="64" viewBox="0 0 64 64" fill="none" xmlns="http://www.w3.org/2000/svg">
<rect width="64" height="64" rx="32" fill="#CCFBEF"/>
<g clip-path="url(#clip0_265_1974)">
<path d="M32.0003 11.8333C23.4494 11.8333 16.9096 18.5709 16.4599 26.9583H16.4169V27.8749V38.875C16.4169 40.0526 16.1572 40.938 15.8315 41.4226C15.5057 41.9073 15.2224 42.0833 14.58 42.0833C13.9072 42.0833 13.4523 41.9205 13.1638 41.7753C12.8754 41.6302 12.8416 41.5766 12.8416 41.5766C12.7113 41.4458 12.556 41.3425 12.3849 41.273C12.2139 41.2034 12.0305 41.1691 11.8459 41.1719C11.6613 41.1747 11.4791 41.2147 11.3103 41.2895C11.1414 41.3643 10.9894 41.4723 10.8632 41.6071C10.8632 41.6071 10.6812 41.8254 10.5839 42.0027C10.4866 42.18 10.3907 42.4055 10.3046 42.692C10.1324 43.265 10.0002 44.0805 10.0002 45.2916C10.0002 47.1516 10.7208 48.9327 12.095 50.1937C13.4691 51.4546 15.4423 52.1666 17.7919 52.1666C19.5874 52.1666 21.5017 51.6361 23.0252 50.353C24.5487 49.0699 25.5836 47.0045 25.5836 44.375V30.086C26.2328 30.0304 26.9718 29.9552 27.9129 29.6868C29.7696 29.1572 32.1805 27.8317 34.6948 25.7193C35.8937 28.1982 37.4138 29.1497 38.417 29.574V44.375C38.417 47.0045 39.4519 49.0699 40.9754 50.353C42.4989 51.6361 44.4131 52.1666 46.2086 52.1666C48.5582 52.1666 50.5314 51.4546 51.9056 50.1937C53.2798 48.9327 54.0003 47.1516 54.0003 45.2916C54.0003 44.0805 53.8681 43.265 53.6959 42.692C53.6098 42.4055 53.514 42.18 53.4166 42.0027C53.3193 41.8254 53.1373 41.6071 53.1373 41.6071C53.0112 41.4723 52.8591 41.3643 52.6903 41.2895C52.5214 41.2147 52.3393 41.1747 52.1546 41.1719C51.97 41.1691 51.7867 41.2034 51.6156 41.273C51.4446 41.3425 51.2893 41.4458 51.159 41.5766C51.159 41.5766 51.1252 41.6302 50.8367 41.7753C50.5483 41.9205 50.0934 42.0833 49.4205 42.0833C48.7782 42.0833 48.5555 41.9586 48.2138 41.3779C47.8722 40.7972 47.5836 39.6413 47.5836 37.9583V29.2499V28.3333H47.5711C47.5441 25.9674 47.3803 23.5194 46.4432 21.3115C45.4481 18.9672 43.391 17.0307 40.1948 16.1785C39.4864 14.7902 38.3781 13.6911 37.0437 13.0131C35.4644 12.2107 33.6783 11.8333 32.0003 11.8333ZM32.0003 14.5833C33.2474 14.5833 34.6708 14.8934 35.7976 15.4659C36.9245 16.0385 37.714 16.825 38.0284 17.7683C38.1046 17.996 38.2391 18.1997 38.4184 18.3593C38.5978 18.5188 38.8158 18.6286 39.0507 18.6778C41.9055 19.28 43.136 20.5601 43.9116 22.3875C44.6872 24.2148 44.8336 26.6913 44.8336 29.2499V37.9583C44.8336 39.9218 45.1034 41.5149 45.8434 42.7726C46.5834 44.0303 47.9674 44.8333 49.4205 44.8333C50.1655 44.8333 50.6315 44.6119 51.1608 44.4376C51.1954 44.7269 51.2503 44.8155 51.2503 45.2916C51.2503 46.4695 50.8405 47.4374 50.0454 48.167C49.2503 48.8966 48.0152 49.4166 46.2086 49.4166C44.9663 49.4166 43.6714 49.0305 42.7461 48.2511C41.8207 47.4717 41.167 46.3287 41.167 44.375V28.7916C41.1669 28.4849 41.0643 28.1871 40.8755 27.9454C40.6867 27.7037 40.4225 27.5321 40.125 27.4578C40.125 27.4578 37.3329 26.9079 36.5997 23.2791C36.5356 22.9611 36.3612 22.6761 36.1073 22.4743C35.8535 22.2725 35.5364 22.1669 35.2122 22.1762C34.8612 22.1865 34.5275 22.3306 34.2794 22.579C31.515 25.3434 28.9787 26.5234 27.1591 27.0424C25.3396 27.5614 24.3697 27.4256 24.3697 27.4256C24.1769 27.4028 23.9814 27.4212 23.7961 27.4795C23.6109 27.5377 23.44 27.6346 23.2949 27.7636C23.1498 27.8927 23.0337 28.051 22.9541 28.2282C22.8746 28.4054 22.8335 28.5974 22.8336 28.7916V44.375C22.8336 46.3287 22.1799 47.4717 21.2545 48.2511C20.3291 49.0305 19.0342 49.4166 17.7919 49.4166C15.9854 49.4166 14.7503 48.8966 13.9552 48.167C13.16 47.4374 12.7502 46.4695 12.7502 45.2916C12.7502 44.8155 12.8052 44.7269 12.8398 44.4376C13.3691 44.6119 13.8351 44.8333 14.58 44.8333C16.0332 44.8333 17.3583 44.0816 18.1142 42.957C18.8701 41.8324 19.1669 40.4272 19.1669 38.875V27.8749C19.1669 20.4381 24.6151 14.5833 32.0003 14.5833Z" fill="#0E9384"/>
</g>
<defs>
<clipPath id="clip0_265_1974">
<rect width="44.0001" height="44.0001" fill="white" transform="translate(10.0001 10)"/>
</clipPath>
</defs>
</svg>
