<svg width="12" height="12" viewBox="0 0 12 12" fill="none" xmlns="http://www.w3.org/2000/svg">
<path d="M0.666647 5.99989C0.698464 5.6499 0.889367 5.459 1.23935 5.42718L9.32884 5.42718L6.15509 2.39661C5.93237 2.14207 5.93237 1.87162 6.15509 1.58527C6.40962 1.36255 6.68007 1.36255 6.96642 1.58527L11.1663 5.59422C11.2776 5.70558 11.3333 5.8408 11.3333 5.99989C11.3333 6.15897 11.2776 6.2942 11.1663 6.40555L6.96642 10.4145C6.68007 10.6372 6.40962 10.6372 6.15509 10.4145C5.93237 10.1281 5.93237 9.8577 6.15509 9.60317L9.32884 6.57259L1.21549 6.57259C0.881412 6.54078 0.698464 6.34987 0.666647 5.99989Z" fill="#202938"/>
</svg>
