<svg width="64" height="64" viewBox="0 0 64 64" fill="none" xmlns="http://www.w3.org/2000/svg">
<rect width="64" height="64" rx="32" fill="#E4FBCC"/>
<path d="M45.0995 18.5596C40.3795 13.8396 34.7195 12.7396 31.7795 12.5196C30.0395 12.4196 28.4395 13.5996 28.0995 15.3196L25.6995 27.3596L14.6995 38.3395C11.7795 41.2595 11.7795 46.0195 14.6995 48.9395C16.1195 50.3595 17.9995 51.1395 19.9995 51.1395C21.9995 51.1395 23.8795 50.3595 25.2995 48.9395L36.2995 37.9395L48.3395 35.5396C50.0595 35.1996 51.2795 33.5996 51.1395 31.8196C50.6195 24.5996 46.3795 19.8396 45.0995 18.5396V18.5596ZM23.1795 46.8395C21.4795 48.5395 18.5195 48.5395 16.8195 46.8395C15.0595 45.0795 15.0595 42.2395 16.8195 40.4795L27.0795 30.2196L33.4395 36.5795L23.1795 46.8395ZM47.7595 32.6196L36.0595 34.9595L28.7195 27.6196L31.0595 15.9196C31.0995 15.6596 31.2995 15.4796 31.5595 15.5196C34.0995 15.7196 38.9595 16.6596 42.9995 20.6796C44.0995 21.7796 47.7395 25.8596 48.1795 32.0396C48.1795 32.3196 48.0195 32.5596 47.7795 32.6196H47.7595Z" fill="#4CA30D"/>
<path d="M24.5988 36.9389L20.3588 41.1789C19.7788 41.7589 19.7788 42.7189 20.3588 43.2989C20.6588 43.5989 21.0388 43.7389 21.4188 43.7389C21.7988 43.7389 22.1788 43.5989 22.4788 43.2989L26.7188 39.0589C27.2988 38.4789 27.2988 37.5189 26.7188 36.9389C26.1388 36.3589 25.1788 36.3589 24.5988 36.9389Z" fill="#4CA30D"/>
</svg>
