<svg width="64" height="64" viewBox="0 0 64 64" fill="none" xmlns="http://www.w3.org/2000/svg">
<rect width="64" height="64" rx="32" fill="#FEE4E2"/>
<path d="M32.0002 10.9998C29.5627 10.9998 27.1487 12.6521 25.5549 15.8044C24.676 17.5505 24.0198 19.824 23.5745 22.6248C19.6135 25.3201 17.0002 29.8552 17.0002 34.9998V49.9998H20.0002V34.9998C20.0002 31.8826 21.1956 29.0701 23.1409 26.9373C23.0706 28.074 23.0002 29.2107 23.0002 30.4998V39.4998C23.0002 41.9724 25.0276 43.9998 27.5002 43.9998H36.5002C38.9729 43.9998 41.0002 41.9724 41.0002 39.4998V30.4998C41.0002 29.2107 40.9299 28.074 40.8596 26.9373C42.8049 29.0701 44.0002 31.8826 44.0002 34.9998V49.9998H47.0002V34.9998C47.0002 29.8552 44.387 25.3201 40.426 22.6248C39.9807 19.824 39.3245 17.5505 38.4338 15.8044C36.8518 12.6521 34.4377 10.9998 32.0002 10.9998ZM32.0002 13.9998C33.1604 13.9998 34.4963 14.656 35.7502 17.1638C37.0159 19.6599 38.0002 23.949 38.0002 30.4998V39.4998C38.0002 40.3435 37.344 40.9998 36.5002 40.9998H27.5002C26.6565 40.9998 26.0002 40.3435 26.0002 39.4998V30.4998C26.0002 23.949 26.9846 19.6599 28.2502 17.1638C29.5042 14.656 30.8401 13.9998 32.0002 13.9998Z" fill="#D92D20"/>
</svg>
