<svg width="24" height="24" viewBox="0 0 24 24" fill="none" xmlns="http://www.w3.org/2000/svg">
<path d="M19.2069 9.4138L12.6207 15.7241C12.3908 15.908 12.1839 16 12 16C11.7931 16 11.5977 15.9195 11.4138 15.7586L4.79314 9.41379C4.63222 9.25287 4.55176 9.05747 4.55176 8.82759C4.55176 8.5977 4.63222 8.4023 4.79314 8.24138C5.16095 7.91954 5.55176 7.91954 5.96555 8.24138L12 14.0345L18.0345 8.24138C18.4483 7.91954 18.8391 7.93104 19.2069 8.27586C19.3678 8.4138 19.4483 8.5977 19.4483 8.82759C19.4483 9.05747 19.3678 9.25288 19.2069 9.4138Z" fill="#697585"/>
</svg>
