<svg width="24" height="24" viewBox="0 0 24 24" fill="none" xmlns="http://www.w3.org/2000/svg">
<path d="M4.79307 14.5862L11.3793 8.27586C11.6092 8.09195 11.8161 8 12 8C12.2069 8 12.4023 8.08046 12.5862 8.24138L19.2069 14.5862C19.3678 14.7471 19.4482 14.9425 19.4482 15.1724C19.4482 15.4023 19.3678 15.5977 19.2069 15.7586C18.839 16.0805 18.4482 16.0805 18.0344 15.7586L12 9.96552L5.96548 15.7586C5.55169 16.0805 5.16089 16.069 4.79307 15.7241C4.63215 15.5862 4.55169 15.4023 4.55169 15.1724C4.55169 14.9425 4.63215 14.7471 4.79307 14.5862Z" fill="#6172F3"/>
</svg>
