<svg width="64" height="64" viewBox="0 0 64 64" fill="none" xmlns="http://www.w3.org/2000/svg">
<rect width="64" height="64" rx="32" fill="#FEE4E2"/>
<path d="M30.3747 8.16675C28.3001 8.16675 26.583 9.88388 26.583 11.9584V20.6251C26.5831 21.056 26.7543 21.4693 27.059 21.7741C27.3637 22.0788 27.777 22.25 28.208 22.2501H30.3747V26.5834H28.208C24.9366 26.5834 22.2497 29.2703 22.2497 32.5417V35.2924C18.3166 38.2576 15.7497 42.955 15.7497 48.2501V54.2084C15.7466 54.4237 15.7864 54.6375 15.8667 54.8374C15.947 55.0372 16.0662 55.2191 16.2174 55.3724C16.3686 55.5258 16.5488 55.6475 16.7474 55.7306C16.9461 55.8138 17.1593 55.8566 17.3747 55.8566C17.59 55.8566 17.8032 55.8138 18.0019 55.7306C18.2006 55.6475 18.3807 55.5258 18.5319 55.3724C18.6831 55.2191 18.8023 55.0372 18.8826 54.8374C18.9629 54.6375 19.0027 54.4237 18.9997 54.2084V48.2501C18.9997 44.949 20.2315 41.9562 22.2497 39.6681V46.6251C22.2497 51.0933 25.9065 54.7501 30.3747 54.7501H33.6247C38.0929 54.7501 41.7497 51.0933 41.7497 46.6251V39.685C43.7628 41.9722 44.9997 44.9536 44.9997 48.2501V54.2084C44.9966 54.4237 45.0364 54.6375 45.1167 54.8374C45.197 55.0372 45.3162 55.2191 45.4674 55.3724C45.6186 55.5258 45.7988 55.6475 45.9974 55.7306C46.1961 55.8138 46.4093 55.8566 46.6247 55.8566C46.84 55.8566 47.0532 55.8138 47.2519 55.7306C47.4506 55.6475 47.6307 55.5258 47.7819 55.3724C47.9331 55.2191 48.0523 55.0372 48.1326 54.8374C48.2129 54.6375 48.2527 54.4237 48.2497 54.2084V48.2501C48.2497 42.9472 45.6922 38.2225 41.7497 35.2585V32.5417C41.7497 29.2703 39.0628 26.5834 35.7913 26.5834H33.6247V22.2501H35.7913C36.2223 22.25 36.6356 22.0788 36.9403 21.7741C37.2451 21.4693 37.4163 21.056 37.4163 20.6251V11.9584C37.4163 9.88388 35.6992 8.16675 33.6247 8.16675H30.3747ZM30.3747 11.4167H33.6247C33.9443 11.4167 34.1663 11.6388 34.1663 11.9584V19.0001H32.2663C32.0918 18.9714 31.9139 18.9714 31.7394 19.0001H29.833V11.9584C29.833 11.6388 30.055 11.4167 30.3747 11.4167ZM28.208 29.8334H30.3747V33.094H30.3704L28.7708 39.4057C28.6603 40.0654 29.1699 40.6667 29.8394 40.6667H34.1663C34.8358 40.6667 35.3454 40.0665 35.2349 39.4057L33.6247 33.094V29.8334H35.7913C37.3061 29.8334 38.4997 31.027 38.4997 32.5417V46.6251C38.4997 49.3372 36.3368 51.5001 33.6247 51.5001H30.3747C27.6625 51.5001 25.4997 49.3372 25.4997 46.6251V32.5417C25.4997 31.027 26.6933 29.8334 28.208 29.8334Z" fill="#D92D20"/>
</svg>
