<svg width="20" height="20" viewBox="0 0 20 20" fill="none" xmlns="http://www.w3.org/2000/svg">
<path d="M13.5 8.5C13.5 7.60417 13.2812 6.77083 12.8438 6C12.3854 5.22917 11.7708 4.61458 11 4.15625C10.2083 3.71875 9.375 3.5 8.5 3.5C7.625 3.5 6.79167 3.71875 6 4.15625C5.22917 4.61458 4.61458 5.22917 4.15625 6C3.71875 6.77083 3.5 7.60417 3.5 8.5C3.5 9.39583 3.71875 10.2292 4.15625 11C4.61458 11.7708 5.22917 12.3854 6 12.8438C6.79167 13.2812 7.625 13.5 8.5 13.5C9.375 13.5 10.2083 13.2812 11 12.8438C11.7708 12.3854 12.3854 11.7708 12.8438 11C13.2812 10.2292 13.5 9.39583 13.5 8.5ZM12.5312 13.5938C11.4062 14.5104 10.0625 14.9792 8.5 15C6.66667 14.9583 5.13542 14.3229 3.90625 13.0938C2.67708 11.8646 2.04167 10.3333 2 8.5C2.04167 6.66667 2.67708 5.13542 3.90625 3.90625C5.13542 2.67708 6.66667 2.04167 8.5 2C10.3333 2.04167 11.8646 2.67708 13.0938 3.90625C14.3229 5.13542 14.9583 6.66667 15 8.5C14.9792 10.0625 14.5104 11.4062 13.5938 12.5312L17.7812 16.7188C18.0729 17.0729 18.0729 17.4271 17.7812 17.7812C17.4271 18.0729 17.0729 18.0729 16.7188 17.7812L12.5312 13.5938Z" fill="#697585"/>
</svg>
