<svg width="32" height="32" viewBox="0 0 32 32" fill="none" xmlns="http://www.w3.org/2000/svg">
<path d="M9.51347 18.3276L15.4411 12.6483C15.648 12.4828 15.8342 12.4 15.9997 12.4C16.1859 12.4 16.3617 12.4724 16.5273 12.6172L22.4859 18.3276C22.6307 18.4724 22.7031 18.6483 22.7031 18.8552C22.7031 19.0621 22.6307 19.2379 22.4859 19.3828C22.1548 19.6724 21.8031 19.6724 21.4307 19.3828L15.9997 14.169L10.5686 19.3828C10.1962 19.6724 9.8445 19.6621 9.51347 19.3517C9.36864 19.2276 9.29623 19.0621 9.29623 18.8552C9.29623 18.6483 9.36864 18.4724 9.51347 18.3276Z" fill="#697585"/>
</svg>
