<svg width="64" height="64" viewBox="0 0 64 64" fill="none" xmlns="http://www.w3.org/2000/svg">
<rect width="64" height="64" rx="32" fill="#FEF0C7"/>
<path d="M34.5005 10C30.7505 10 27.7532 10.9741 25.7759 13.1035C23.7985 15.233 23.0005 18.2857 23.0005 22C22.9991 22.1029 23.0082 22.2056 23.0278 22.3067C21.8193 23.3065 21.0005 24.7581 21.0005 26.4356V49.5489C21.0005 51.9893 23.0112 54 25.4517 54H38.5493C40.9898 54 43.0005 51.9893 43.0005 49.5489V26.4356C43.0005 24.7575 42.1805 23.3065 40.9712 22.3067C40.9915 22.2057 41.0013 22.103 41.0005 22C41.0005 20.5143 40.5063 19.1927 39.7681 18H41.5005C41.8983 18 42.2798 17.8419 42.5611 17.5606C42.8424 17.2793 43.0005 16.8978 43.0005 16.5V11.5C43.0005 11.1022 42.8424 10.7207 42.5611 10.4394C42.2798 10.1581 41.8983 10 41.5005 10H34.5005ZM34.5005 13H40.0005V15H35.5005C35.133 14.9995 34.778 15.134 34.5031 15.3779C34.2281 15.6218 34.0523 15.9582 34.0089 16.3232C33.9655 16.6881 34.0577 17.0563 34.2678 17.3579C34.478 17.6594 34.7915 17.8733 35.1489 17.959C35.1489 17.959 36.2454 18.3174 36.6255 18.6387C37.4166 19.3075 37.7197 20.0674 37.8579 21.0606C37.7556 21.0547 37.6686 21 37.565 21H26.436C26.3228 21 26.2273 21.0575 26.1157 21.0645C26.2547 18.3645 26.8461 16.3624 27.9751 15.1465C29.2478 13.7759 31.2505 13 34.5005 13ZM26.436 24H37.565C38.9271 24 40.0005 25.0734 40.0005 26.4356V49.5489C40.0005 50.3684 39.3689 51 38.5493 51H25.4517C24.6321 51 24.0005 50.3684 24.0005 49.5489V26.4356C24.0005 25.0734 25.0739 24 26.436 24Z" fill="#DC6803"/>
</svg>
