<svg width="20" height="16" viewBox="0 0 20 16" fill="none" xmlns="http://www.w3.org/2000/svg">
<path fill-rule="evenodd" clip-rule="evenodd" d="M0 3.5C0 1.84315 1.34315 0.5 3 0.5H17C18.6569 0.5 20 1.84315 20 3.5V12.4999C20 14.1568 18.6569 15.4999 17 15.4999H3C1.34315 15.4999 0 14.1568 0 12.4999V3.5Z" fill="#E30A17"/>
<path fill-rule="evenodd" clip-rule="evenodd" d="M12.7189 8.2349C12.7189 10.3036 11.0126 11.9818 8.90637 11.9818C6.80012 11.9818 5.09387 10.3036 5.09387 8.23177C5.09387 6.15991 6.80012 4.48804 8.90637 4.48804C11.0126 4.48804 12.7189 6.16616 12.7189 8.2349Z" fill="white"/>
<path fill-rule="evenodd" clip-rule="evenodd" d="M12.9078 8.23466C12.9069 8.23466 12.9062 8.23537 12.9062 8.23623C12.9053 9.89175 11.5432 11.2315 9.85932 11.2315C8.17495 11.2315 6.80933 9.88778 6.80933 8.23153C6.80933 6.57529 8.17495 5.23779 9.85932 5.23779C11.5432 5.23779 12.9085 6.57757 12.9093 8.23309C12.9093 8.23395 12.9086 8.23466 12.9078 8.23466Z" fill="#E30A17"/>
<path fill-rule="evenodd" clip-rule="evenodd" d="M13.4593 6.48433L13.4281 7.8687L12.1375 8.2187L13.4125 8.67182L13.3812 9.94369L14.2093 8.94994L15.4656 9.38744L14.7406 8.32182L15.625 7.26245L14.2656 7.63745L13.4593 6.4812V6.48433Z" fill="white"/>
</svg>
